<?xml version="1.0" encoding="UTF-8"?>
<svg width="33px" height="33px" viewBox="0 0 33 33" version="1.1" xmlns="http://www.w3.org/2000/svg" xmlns:xlink="http://www.w3.org/1999/xlink" xmlns:sketch="http://www.bohemiancoding.com/sketch/ns">
    <!-- Generator: Sketch 3.3.3 (12081) - http://www.bohemiancoding.com/sketch -->
    <title>Untitled 7</title>
    <desc>Created with Sketch.</desc>
    <defs></defs>
    <g id="Page-1" stroke="none" stroke-width="1" fill="none" fill-rule="evenodd" sketch:type="MSPage">
        <g id="close" sketch:type="MSLayerGroup" fill="#000000">
            <path d="M19.40675,16.490375 L32.37575,3.521375 C33.1815,2.7163125 33.1815,1.4100625 32.37575,0.605 C31.57,-0.20075 30.265125,-0.20075 29.459375,0.605 L16.490375,13.574 L3.5206875,0.605 C2.7149375,-0.20075 1.4100625,-0.20075 0.6043125,0.605 C-0.2014375,1.4100625 -0.2014375,2.7163125 0.6043125,3.521375 L13.574,16.490375 L0.6043125,29.459375 C-0.2014375,30.2644375 -0.2014375,31.5706875 0.6043125,32.37575 C1.0071875,32.7779375 1.5351875,32.979375 2.0625,32.979375 C2.5898125,32.979375 3.1178125,32.7779375 3.5206875,32.3750625 L16.490375,19.4060625 L29.459375,32.3750625 C29.86225,32.7779375 30.39025,32.979375 30.9175625,32.979375 C31.444875,32.979375 31.972875,32.7779375 32.37575,32.3750625 C33.1815,31.57 33.1815,30.26375 32.37575,29.4586875 L19.40675,16.490375 L19.40675,16.490375 Z" id="Shape" sketch:type="MSShapeGroup"></path>
        </g>
    </g>
</svg>