<?xml version="1.0" standalone="no"?>
<!DOCTYPE svg PUBLIC "-//W3C//DTD SVG 1.1//EN" "http://www.w3.org/Graphics/SVG/1.1/DTD/svg11.dtd" >
<svg>
<metadata>
Created by FontForge 20090914 at Wed Dec 10 21:27:14 2014
 By www-data
Copyright (C) 1993; Type Market Ltd. Moscow, 119136, Box 20; phone:(095)1427712; Created by A.Kustov
</metadata>
<defs>
<font id="Europe_Ext-Oblique" horiz-adv-x="716" >
  <font-face 
    font-family="Europe_Ext"
    font-weight="400"
    font-style="oblique"
    font-stretch="normal"
    units-per-em="1000"
    panose-1="0 0 0 0 0 0 0 0 0 0"
    ascent="800"
    descent="-200"
    x-height="492"
    cap-height="694"
    bbox="-20 -212 1666 885.001"
    underline-thickness="50"
    underline-position="-105"
    unicode-range="U+0020-U+2122"
  />
<missing-glyph horiz-adv-x="788" 
d="M49 0v788h690v-788h-690zM690 49v690h-592v-690h592z" />
    <glyph glyph-name=".notdef" horiz-adv-x="788" 
d="M49 0v788h690v-788h-690zM690 49v690h-592v-690h592z" />
    <glyph glyph-name="space" unicode=" " horiz-adv-x="318" 
 />
    <glyph glyph-name="exclam" unicode="!" horiz-adv-x="196" 
d="M164 168h-72l95 526h72zM62 0l14 78h72l-14 -78h-72z" />
    <glyph glyph-name="quotedbl" unicode="&#x22;" horiz-adv-x="338" 
d="M333 708h56l-43 -172h-32zM199 708h56l-41 -172h-34z" />
    <glyph glyph-name="numbersign" unicode="#" horiz-adv-x="640" 
d="M376 678h56l-57 -130h148l57 130h54l-55 -130h130l-24 -56h-132l-53 -124h130l-24 -56h-130l-58 -136h-54l58 136h-148l-58 -132h-54l58 132h-136l22 56h138l53 124h-136l26 56h134zM501 492h-150l-53 -124h148z" />
    <glyph glyph-name="dollar" unicode="$" horiz-adv-x="902" 
d="M525 628h-172.999c-38.667 0 -68.667 -9 -90 -27c-24.667 -20.667 -41.334 -55 -50.001 -103c-2 -10 -3 -19.333 -3 -28c0 -27.333 8.83301 -47.5 26.5 -60.5s42.167 -19.5 73.5 -19.5h173zM497.001 70l164.001 -0.00195312c48 0 84.333 11.667 109 35
c21.333 20.667 36 52.334 44 95.001l4.5 30c1 6.66699 1.5 13.334 1.5 20.001c0 24.667 -8.33301 42.5 -25 53.5s-46.334 16.5 -89.001 16.5h-164zM470.002 319.998l-160 0.000976562c-64.667 0 -111 11.167 -139 33.5s-42 54.833 -42 97.5c0 8.66699 0.333008 15.5 1 20.5
s2 13.833 4 26.5c10.667 61.333 36.667 109.333 78 144c44 37.333 100.667 56 170 56h156l11 62h72l-11 -62h128c72 0 124.667 -11.333 158 -34s50 -58.667 50 -108c0 -13.333 -1.66699 -30.666 -5 -51.999h-72c2 11.333 3 21.666 3 30.999c0 31.333 -11 54.666 -33 69.999
s-61 23 -117 23h-125l-43 -238h151c68.667 0 118 -10.333 148 -31s45 -54 45 -100c0 -18 -2 -37.667 -6 -59c-11.333 -60.667 -33.333 -107 -66 -139c-42 -40.667 -103 -61 -183 -61h-159l-16 -90h-72l16 90h-153c-57.333 0 -101.5 12 -132.5 36s-46.5 60.667 -46.5 110
c0 13.333 1.66699 29.333 5 48h72c-2 -11.333 -3 -22 -3 -32c0 -30 9 -52.833 27 -68.5s46.667 -23.5 86 -23.5h158z" />
    <glyph glyph-name="percent" unicode="%" horiz-adv-x="1150" 
d="M550 536c2.66699 13.333 4 26.335 4 39.002c0 21.333 -6.16699 36.166 -18.5 44.499s-33.5 12.5 -63.5 12.5h-148c-40.667 0 -68.667 -6.33301 -84 -19s-26.666 -38.334 -33.999 -77.001l-20 -116c-1.33301 -6 -2.33301 -11.5 -3 -16.5s-1 -10.5 -1 -16.5
c0 -22 6.66699 -37.667 20 -47s35.666 -14 66.999 -14h147c36.667 0 63.167 6.83301 79.5 20.5s27.833 38.167 34.5 73.5zM591 414.002c-10 -53.333 -28.5 -91.001 -55.5 -113.001s-68.167 -33 -123.5 -33c-8.66699 0 -24.167 -0.666992 -46.5 -2s-34.166 -2 -35.499 -2
c-8.66699 0 -22 0.666992 -40 2s-31.333 2 -40 2c-46.667 0 -80.334 7.33301 -101.001 22s-31 39.334 -31 74.001v14c0 4 1.66699 16 5 36l23 128c10 57.333 28 97 54 119s68.333 33 127 33h162c44.667 0 77.5 -7.66699 98.5 -23s31.5 -42 31.5 -80
c0 -13.333 -0.666992 -23.833 -2 -31.5l-3 -17.5zM843 728.001l-343 -762h-58l341 762h60zM1137 148.001c-10 -54 -28.167 -92.167 -54.5 -114.5s-67.166 -33.5 -122.499 -33.5h-162c-47.333 0 -81.5 7.5 -102.5 22.5s-31.5 40.167 -31.5 75.5v14c0 4 1.66699 16 5 36
l22 126c10.667 58 29.167 98.167 55.5 120.5s69.166 33.5 128.499 33.5h162c43.333 0 75.333 -7.83301 96 -23.5s31 -42.167 31 -79.5c0 -12.667 -1.66699 -29.667 -5 -51zM1099 270.001c2.66699 12.667 3.99805 25.001 3.99805 37.001c0 22 -6.33301 37.333 -19 46
s-34 13 -64 13h-150c-39.333 0 -66.666 -6.33301 -81.999 -19s-26.333 -38.334 -33 -77.001l-21 -116c-1.33301 -6 -2.33301 -11.667 -3 -17s-1 -11 -1 -17c0 -22 6.5 -37.5 19.5 -46.5s34.5 -13.5 64.5 -13.5h150c36 0 62.333 6.83301 79 20.5s28.334 38.167 35.001 73.5z
" />
    <glyph glyph-name="ampersand" unicode="&#x26;" horiz-adv-x="988" 
d="M802 44c-14.667 -10 -28.001 -17.335 -40.001 -22.002c-37.333 -14.667 -83.333 -22 -138 -22h-330c-62 0 -111 14.667 -147 44c-39.333 32 -59 78.333 -59 139c0 8.66699 0.333008 17.834 1 27.501s2 19.5 4 29.5c14 74.667 49.333 129 106 163
c18.667 11.333 45.667 21 81 29c-4.66699 3.33301 -8 6.66602 -10 9.99902c-6.66699 10 -10 24.333 -10 43v20c2 8 3.33301 13.667 4 17c10.667 60 42.334 104.667 95.001 134c45.333 25.333 104.666 38 177.999 38h210c79.333 0 136 -20.333 170 -61
c22.667 -27.333 34 -62.333 34 -105c0 -6.66699 -0.5 -12.834 -1.5 -18.501s-1.5 -9.5 -1.5 -11.5l-1 -4h-74c1.33301 12 2 21 2 27c0 33.333 -12.167 58.5 -36.5 75.5s-59.166 25.5 -104.499 25.5h-220c-105.333 0 -164.333 -36 -177 -108c-1.33301 -9.33301 -2 -16 -2 -20
c0 -19.333 6 -34.666 18 -45.999c4 -3.33301 10.333 -7.33301 19 -12l443 -296c21.333 18.667 37.333 34.334 48 47.001c33.333 38 53.333 73.667 60 107h72c-8.66699 -48.667 -31.667 -95.667 -69 -141c-12 -15.333 -30 -33.666 -54 -54.999l60 -40l-55 -66z
M326.999 369.998c-31.333 -4 -55.333 -9.33398 -72 -16.001c-50 -21.333 -80 -59.333 -90 -114c-1.33301 -6.66699 -2.33301 -14.167 -3 -22.5s-1 -16.166 -1 -23.499c0 -38.667 11.167 -68.667 33.5 -90s56.5 -32 102.5 -32h348c21.333 0 42.666 3.33301 63.999 10
c6.66699 2 15.334 5.33301 26.001 10z" />
    <glyph glyph-name="quotesingle" unicode="'" horiz-adv-x="208" 
d="M199 708h56l-41 -172h-34z" />
    <glyph glyph-name="parenleft" unicode="(" horiz-adv-x="316" 
d="M58 134l67.001 369.999c14 80 48.333 142.333 103 187s120 67 196 67l-14 -78c-60 0 -106.833 -14.5 -140.5 -43.5s-55.834 -73.167 -66.501 -132.5l-67 -372c-4 -24 -6 -44.667 -6 -62c0 -42 12.667 -71.667 38 -89c22.667 -15.333 60 -23 112 -23l-14 -78
c-70.667 0 -124.167 14.333 -160.5 43s-54.5 74.334 -54.5 137.001c0 24 2.33301 48.667 7 74z" />
    <glyph glyph-name="parenright" unicode=")" horiz-adv-x="316" 
d="M304 134c-16 -88 -49.666 -152.999 -100.999 -194.999c-48 -39.333 -113.667 -59 -197 -59l14 78c63.333 0 109.666 11.333 138.999 34c32.667 25.333 55 72 67 140l67 372c3.33301 20 5 37 5 51c0 83.333 -49.333 125 -148 125l14 78c65.333 0 117 -17 155 -51
s57 -82.667 57 -146c0 -8.66699 -0.333008 -17.834 -1 -27.501s-2 -19.5 -4 -29.5z" />
    <glyph glyph-name="asterisk" unicode="*" horiz-adv-x="348" 
d="M287 548c10 -2.66699 18.3301 -4.66992 24.9971 -6.00293c19.333 -4.66699 37 -8.33398 53 -11.001s26.333 -7.83398 31 -15.501s6 -16.167 4 -25.5c-1.33301 -9.33301 -5.66602 -17.666 -12.999 -24.999s-15.666 -11 -24.999 -11c-10.667 0 -21.667 6.66699 -33 20
l-34 46c-4 5.33301 -9.33301 12 -16 20c0.666992 -10.667 1.5 -21.667 2.5 -33s3.5 -29.666 7.5 -54.999l-1 -18c-2 -12 -7.33301 -21.667 -16 -29s-17.667 -11 -27 -11c-8.66699 0 -15.834 3.5 -21.501 10.5s-7.5 16.167 -5.5 27.5c0 4 2.33301 10.667 7 20
c9.33301 20.667 19 40.334 29 59.001c3.33301 6.66699 8.33301 15.667 15 27l-74 -68c-14.667 -13.333 -28 -20 -40 -20c-9.33301 0 -17 3.83301 -23 11.5s-8.33301 15.834 -7 24.501c2 8.66699 6.83301 16.5 14.5 23.5s18.5 11.833 32.5 14.5l93 24l-85 18
c-11.333 2 -20.166 6.5 -26.499 13.5s-8.83301 14.5 -7.5 22.5s6.33301 16 15 24s17.334 12 26.001 12c12 0 23 -6.33301 33 -19l35 -43c4 -5.33301 9.66699 -12 17 -20l-12 86c-1.33301 8 -2 13.333 -2 16c2.66699 11.333 8.5 20.833 17.5 28.5s17.833 11.5 26.5 11.5
s15.834 -3.5 21.501 -10.5s7.5 -16.167 5.5 -27.5c-0.666992 -3.33301 -1.16699 -6 -1.5 -8s-1.5 -5.33301 -3.5 -10l-42 -86l70 68c6 5.33301 12.5 9.33301 19.5 12s12.833 4 17.5 4c8.66699 0 16.167 -3.66699 22.5 -11s8.83301 -15 7.5 -23s-5.33301 -15.333 -12 -22
s-17.834 -11.5 -33.501 -14.5s-35.5 -7.83301 -59.5 -14.5c-6.66699 -1.33301 -15.667 -3.66602 -27 -6.99902z" />
    <glyph glyph-name="plus" unicode="+" horiz-adv-x="468" 
d="M113 326h144l26 144h66l-26 -144h146l-12 -66h-146l-26 -146h-66l26 146h-144z" />
    <glyph glyph-name="comma" unicode="," horiz-adv-x="186" 
d="M60 -2l14 77.998h78l-24 -130c-2 -12 -6.33301 -22.667 -13 -32s-14.667 -16.666 -24 -21.999h-38c10.667 6.66699 19 14.334 25 23.001s10 19 12 31l10 52h-40z" />
    <glyph glyph-name="hyphen" unicode="-" horiz-adv-x="434" 
d="M113 328h318l-13 -74h-318z" />
    <glyph glyph-name="period" unicode="." horiz-adv-x="186" 
d="M60 0l14 78h78l-14 -78h-78z" />
    <glyph glyph-name="slash" unicode="/" horiz-adv-x="316" 
d="M439 728l-369 -818h-78l369 818h78z" />
    <glyph glyph-name="zero" unicode="0" horiz-adv-x="868" 
d="M833 448c4.66699 24 7.00098 47.002 7.00098 69.002c0 41.333 -11.833 70.166 -35.5 86.499s-63.834 24.5 -120.501 24.5h-272c-74 0 -124.667 -10.833 -152 -32.5s-48.333 -70.834 -63 -147.501l-21 -106l-17 -104c-4.66699 -27.333 -7 -51.333 -7 -72
c0 -41.333 12.667 -68.333 38 -81c20 -10 60.667 -15 122 -15h272c70.667 0 118 8.33301 142 25c32 22 55 69.667 69 143zM867.001 238.002c-19.333 -96.667 -50.6689 -161.333 -94.002 -194c-39.333 -29.333 -106.333 -44 -201 -44h-272
c-81.333 0 -137.666 9.33301 -168.999 28c-35.333 21.333 -53 61.333 -53 120c0 24.667 3 54.667 9 90l17 104l21 106c18.667 100.667 48.334 167.5 89.001 200.5s111.334 49.5 212.001 49.5h272c75.333 0 128.666 -11 159.999 -33c36 -25.333 54 -70.333 54 -135
c0 -26 -2.33301 -53.333 -7 -82z" />
    <glyph glyph-name="one" unicode="1" horiz-adv-x="868" 
d="M524 0h-78l112 622l-221 -184l-42 48l244 208h110z" />
    <glyph glyph-name="two" unicode="2" horiz-adv-x="868" 
d="M894 464c-14 -76.667 -39.666 -129.665 -76.999 -158.998c-42 -32.667 -112.667 -49 -212 -49h-250c-66 0 -116.333 -12.333 -151 -37c-29.333 -20.667 -47.666 -50.334 -54.999 -89.001l-10 -60h684l-13 -70h-756l23 130c11.333 63.333 40.333 111.333 87 144
c49.333 34.667 117.666 52 204.999 52h250c67.333 0 115.666 10 144.999 30s48.666 56 57.999 108c4 23.333 6 44 6 62c0 37.333 -11.5 63.666 -34.5 78.999s-63.5 23 -121.5 23h-250c-64.667 0 -111.667 -10.667 -141 -32c-26 -18.667 -43.333 -49.334 -52 -92.001h-78
c12 66.667 41.333 115.667 88 147s112.334 47 197.001 47h250c80 0 136.167 -10.667 168.5 -32s48.5 -59.333 48.5 -114c0 -25.333 -3 -54.666 -9 -87.999z" />
    <glyph glyph-name="three" unicode="3" horiz-adv-x="868" 
d="M419 324l13.002 69.9951h215c53.333 0 92.666 7.33301 117.999 22c30 17.333 49 48.666 57 93.999c1.33301 10.667 2 18.334 2 23.001c0 28.667 -11.5 51 -34.5 67s-57.167 24 -102.5 24h-267c-50.667 0 -92 -10.833 -124 -32.5s-53 -54.167 -63 -97.5h-72l-1 4
c8.66699 56 37.834 102.667 87.501 140s111.5 56 185.5 56h252c65.333 0 115 -8.33301 149 -25c44 -21.333 66 -57.666 66 -108.999v-22c-2 -7.33301 -3.33301 -12.666 -4 -15.999c-11.333 -61.333 -35.666 -106.333 -72.999 -135c-12 -9.33301 -30 -17.666 -54 -24.999
c19.333 -1.33301 36.666 -10.666 51.999 -27.999s23 -43.666 23 -78.999c0 -12.667 -1.66699 -29.667 -5 -51c-14 -76 -47.333 -130.333 -100 -163c-44 -27.333 -103.667 -41 -179 -41h-251c-70.667 -0 -122.834 11.833 -156.501 35.5s-50.5 60.167 -50.5 109.5
c0 14 1.66699 31 5 51h72c-1.33301 -10.667 -2 -18.667 -2 -24c0 -36 12.833 -62 38.5 -78s61.167 -24 106.5 -24h267c56.667 0 98.167 9.66699 124.5 29s44.166 54.333 53.499 105c2.66699 15.333 4 29.666 4 42.999c0 32.667 -11.667 54.334 -35 65.001
c-18 8 -52 12 -102 12h-215z" />
    <glyph glyph-name="four" unicode="4" horiz-adv-x="868" 
d="M843 694l-85 -474h93l-13 -70h-93l-27 -150h-72l27 150h-580l13 72l659 472h78zM686 220l70 392l-545 -392h475z" />
    <glyph glyph-name="five" unicode="5" horiz-adv-x="868" 
d="M848 224c-14 -80 -44.4971 -137.666 -91.4971 -172.999s-115.833 -53 -206.5 -53h-248c-147.333 0 -221 50.667 -221 152v26c2 9.33301 3.33301 16 4 20h72c-1.33301 -7.33301 -2 -17.333 -2 -30c0 -33.333 12.167 -58 36.5 -74s65.166 -24 122.499 -24h247
c70.667 0 121.667 12.167 153 36.5s52 64.166 62 119.499c3.33301 18 5 33 5 45c0 38 -12.667 66.167 -38 84.5s-67 27.5 -125 27.5h-306c-34 0 -59.333 -4.16699 -76 -12.5s-31.334 -24.5 -44.001 -48.5h-72l67 374h729l-13 -70h-657l-40 -225
c9.33301 12 22.666 23 39.999 33c22.667 12.667 46 19 70 19h314c78 0 135 -12.833 171 -38.5s54 -66.5 54 -122.5c0 -8 -0.5 -17.5 -1.5 -28.5s-2.83301 -23.5 -5.5 -37.5z" />
    <glyph glyph-name="six" unicode="6" horiz-adv-x="868" 
d="M423 632c-66 0 -115.002 -11.334 -147.002 -34.001c-29.333 -20.667 -48 -54 -56 -100l-29 -161c15.333 18.667 33.333 33.334 54 44.001c34.667 17.333 78 26 130 26h8h248c80 0 138.167 -11 174.5 -33s54.5 -56.333 54.5 -103v-26c-2 -8.66699 -3.33301 -15 -4 -19
l-6 -30c-14 -70.667 -44 -122.667 -90 -156s-115.333 -50 -208 -50h-241c-77.333 0 -133.833 13 -169.5 39s-53.5 64 -53.5 114v28c2 8.66699 3.33301 15 4 19l56 308c12 69.333 40.833 120.666 86.5 153.999s112.834 50 201.501 50h248c147.333 0 221 -50.667 221 -152
c0 -5.33301 -0.166992 -11.166 -0.5 -17.499s-1.5 -15.833 -3.5 -28.5h-72c1.33301 12 2 20.333 2 25c0 33.333 -11.333 58.333 -34 75c-25.333 18.667 -66.666 28 -123.999 28h-250zM373.998 336.999c-76 0 -128.998 -11.667 -158.998 -35
c-22.667 -17.333 -38.667 -49 -48 -95c-2.66699 -13.333 -4 -27.666 -4 -42.999c0 -32 10 -56.333 30 -73c25.333 -20.667 67.666 -31 126.999 -31h250c68.667 0 119.334 10.667 152.001 32c27.333 18 44.666 46 51.999 84l4 25c2 13.333 3 25.666 3 36.999
c0 32.667 -10.333 56.667 -31 72c-24.667 18 -68.334 27 -131.001 27h-245z" />
    <glyph glyph-name="seven" unicode="7" horiz-adv-x="868" 
d="M147 694h827l-12 -66l-738 -627h-101l742 624h-731z" />
    <glyph glyph-name="eight" unicode="8" horiz-adv-x="868" 
d="M372 322c-66.667 0 -115.666 -12 -146.999 -36c-26 -20 -42.667 -51.333 -50 -94c-2 -12 -3 -23 -3 -33c0 -32 11.667 -56.5 35 -73.5s62.666 -25.5 117.999 -25.5h255c68 0 118 12 150 36c27.333 20.667 45 52.667 53 96c0.666992 6.66699 1.5 13 2.5 19
s1.5 12.667 1.5 20c0 31.333 -11.667 54.333 -35 69s-65 22 -125 22h-255zM428.001 632c-63.333 0 -109.002 -11.668 -137.002 -35.001c-23.333 -19.333 -38.666 -50.666 -45.999 -93.999c-1.33301 -6.66699 -2.33301 -12.667 -3 -18s-1 -11 -1 -17
c0 -26.667 10.5 -46 31.5 -58s58.5 -18 112.5 -18h255c66.667 0 112.334 8.16699 137.001 24.5s40.667 45.5 48 87.5c2 12 3 23.333 3 34c0 31.333 -11.333 54.833 -34 70.5s-59.667 23.5 -111 23.5h-255zM695.999 701.999c74 0 127.169 -11.5 159.502 -34.5
s48.5 -59.5 48.5 -109.5c0 -18 -2 -38 -6 -60c-11.333 -62 -39 -104.333 -83 -127c-14.667 -7.33301 -35.667 -12.333 -63 -15c24 -5.33301 42 -11.666 54 -18.999c36 -22.667 54 -58 54 -106v-24c-2 -8 -3.33301 -13.667 -4 -17c-24 -133.333 -120 -200 -288 -200h-256
c-147.333 0 -221 50.333 -221 151c0 14 1.66699 30.333 5 49c12 63.333 43 110 93 140c16.667 10 41 18.667 73 26c-22.667 1.33301 -39.334 4.33301 -50.001 9c-33.333 15.333 -50 45.666 -50 90.999v15.5c0 4.33301 1.33301 13.166 4 26.499
c12.667 70.667 40.167 122.334 82.5 155.001s106.166 49 191.499 49h256z" />
    <glyph glyph-name="nine" unicode="9" horiz-adv-x="868" 
d="M575 60c66 0 114.167 10.834 144.5 32.501s49.833 55.5 58.5 101.5l29 161c-16 -18.667 -34.333 -33.334 -55 -44.001c-34.667 -17.333 -78 -26 -130 -26h-8h-248c-80.667 0 -138.834 10.833 -174.501 32.5s-53.5 56.167 -53.5 103.5v17c0 6 1.33301 15.333 4 28l5 30
c14 70.667 44 122.667 90 156s115.333 50 208 50h241c77.333 0 134 -12.833 170 -38.5s54 -63.5 54 -113.5c0 -13.333 -1.66699 -29.333 -5 -48l-55 -308c-12.667 -70 -41.667 -121.5 -87 -154.5s-112.666 -49.5 -201.999 -49.5h-248c-146.667 0 -220 50.667 -220 152v18.5
c0 5 1.33301 14.167 4 27.5h72c-1.33301 -12 -2 -20.333 -2 -25c0 -33.333 12 -58.833 36 -76.5s64.667 -26.5 122 -26.5h250zM674 632.001h-245c-73.333 0 -126 -12.667 -158 -38c-24.667 -19.333 -41.667 -52 -51 -98l-4 -25c-1.33301 -4.66699 -2 -9.5 -2 -14.5v-11.5
c0 -29.333 11.333 -51 34 -65c26.667 -16.667 70 -25 130 -25h250c72 0 124.333 15 157 45c24 22 40 56 48 102c1.33301 12 2 21 2 27c0 33.333 -11.667 58.333 -35 75c-26 18.667 -68 28 -126 28z" />
    <glyph glyph-name="colon" unicode=":" horiz-adv-x="186" 
d="M126 364l14 78h78l-14 -78h-78zM60 0l14 78h78l-14 -78h-78z" />
    <glyph glyph-name="semicolon" unicode=";" horiz-adv-x="186" 
d="M126 364l14 78h78l-14 -78h-78zM60 -2l14 77.998h78l-24 -130c-2 -12 -6.33301 -22.667 -13 -32s-14.667 -16.666 -24 -21.999h-38c10.667 6.66699 19 14.334 25 23.001s10 19 12 31l10 52h-40z" />
    <glyph glyph-name="less" unicode="&#x3c;" horiz-adv-x="370" 
d="M87 306l321 194l-14 -78l-191 -116l150 -112l-14 -76z" />
    <glyph glyph-name="equal" unicode="=" horiz-adv-x="434" 
d="M98 244h318l-13 -72h-318zM127 404h318l-13 -72h-318z" />
    <glyph glyph-name="greater" unicode="&#x3e;" horiz-adv-x="370" 
d="M393 306l-320 -188l14 76l190 112l-149 116l14 78z" />
    <glyph glyph-name="question" unicode="?" horiz-adv-x="880" 
d="M334 0l14 78h78l-14 -78h-78zM569 318c-36.667 0 -63.665 -7.16699 -80.998 -21.5s-29 -37.166 -35 -68.499l-11 -60h-78l12 68c9.33301 52 31.166 90.333 65.499 115s81.166 37 140.499 37c78.667 0 135.667 6.33301 171 19c47.333 17.333 75.333 49.666 84 96.999
c2.66699 14 4 28 4 42c0 32 -11.5 54.333 -34.5 67s-64.167 19 -123.5 19h-273c-64 0 -111.667 -11.333 -143 -34c-27.333 -20 -45.333 -51.333 -54 -94h-78c12 66 41.833 115.5 89.5 148.5s111.5 49.5 191.5 49.5h278c80.667 0 138.667 -11.333 174 -34s53 -59 53 -109
c0 -16.667 -2 -35 -6 -55c-13.333 -72 -49 -122 -107 -150c-50 -24 -129.667 -36 -239 -36z" />
    <glyph glyph-name="at" unicode="@" horiz-adv-x="652" 
d="M413 530c-34 0 -63.167 -11.834 -87.5 -35.501s-39.166 -50.5 -44.499 -80.5c-1.33301 -9.33301 -2 -16.333 -2 -21c0 -22 6.66699 -40.333 20 -55s32.666 -22 57.999 -22c34 0 62.5 11.167 85.5 33.5s37.167 48.5 42.5 78.5c1.33301 10.667 2 18.334 2 23.001
c0 22.667 -5.66699 41 -17 55c-13.333 16 -32.333 24 -57 24zM450 677.999c-79.333 0 -146.999 -25.999 -202.999 -77.999c-50.667 -46.667 -82 -103.334 -94 -170.001c-1.33301 -6.66699 -2.33301 -14.167 -3 -22.5s-1 -16.5 -1 -24.5c0 -56.667 17 -103 51 -139
c38 -40 91.667 -60 161 -60c32.667 0 66.167 5.66699 100.5 17s59.166 25 74.499 41l17 -28c-16 -16 -43.5 -30.667 -82.5 -44s-78.833 -20 -119.5 -20c-78.667 0 -139.667 22.667 -183 68c-38.667 40.667 -58 93 -58 157c0 15.333 1.66699 33 5 53
c13.333 76 49.333 140.667 108 194c65.333 60 143 90 233 90c63.333 0 116.333 -15.333 159 -46c53.333 -38.667 80 -96 80 -172c0 -8 -0.333008 -17.667 -1 -29s-2 -22.333 -4 -33c-7.33301 -41.333 -21.333 -74.666 -42 -99.999c-27.333 -33.333 -62.333 -50 -105 -50
c-28 0 -46 11.667 -54 35c-2.66699 7.33301 -4 19 -4 35c-10 -16 -19.333 -27.667 -28 -35c-27.333 -23.333 -63.333 -35 -108 -35c-35.333 0 -62.333 10 -81 30s-28 45 -28 75c0 11.333 0.666992 19.666 2 24.999c7.33301 39.333 26.666 73.666 57.999 102.999
c35.333 32.667 76 49 122 49c38.667 0 66.667 -12.333 84 -37l16 -39l24 70h32l-53 -174l-4 -14c-0.666992 -3.33301 -1 -8.33301 -1 -15c0 -11.333 2.66699 -20.333 8 -27s14.333 -10 27 -10c26.667 0 49.334 12.667 68.001 38c16.667 22 27.667 48.667 33 80
c1.33301 6 2.33301 15 3 27s1 20.333 1 25c-6.66699 68.667 -29 118.334 -67 149.001c-34 27.333 -81.667 41 -143 41z" />
    <glyph glyph-name="A" unicode="A" horiz-adv-x="846" 
d="M88 0h-80l485 694h110l235 -694h-84l-58 174h-488zM260 244h412l-134 400z" />
    <glyph glyph-name="B" unicode="B" horiz-adv-x="890" 
d="M246 624l-39.999 -226.001h472c49.333 0 85.666 7.33301 108.999 22c26.667 16.667 43.667 46 51 88c2 12 3 22.667 3 32c0 28.667 -9.5 49.834 -28.5 63.501s-50.5 20.5 -94.5 20.5h-472zM62.001 -0.000976562l124.998 694h516c142.667 0 214 -45.667 214 -137
c0 -14.667 -1.33301 -28.334 -4 -41.001c-8.66699 -46.667 -25.667 -83.667 -51 -111c-18 -19.333 -39 -32.333 -63 -39c17.333 -3.33301 33.333 -12.666 48 -27.999c22.667 -23.333 34 -54.333 34 -93v-24c-2 -8 -3.33301 -13.667 -4 -17
c-13.333 -74.667 -43.666 -128 -90.999 -160c-43.333 -29.333 -106.666 -44 -189.999 -44h-534zM192.999 327.999l-46.001 -258h490c48 0 85.833 10.667 113.5 32s45.834 55.333 54.501 102c2 12 3 22.667 3 32c0 32.667 -11 56.167 -33 70.5s-54.667 21.5 -98 21.5h-484z
" />
    <glyph glyph-name="C" unicode="C" horiz-adv-x="912" 
d="M602 -2l-303.999 -0.00195312c-78 0 -134.167 12.833 -168.5 38.5s-51.5 68.5 -51.5 128.5c0 22 2.66699 49 8 81l37 202c17.333 91.333 48.666 156.5 93.999 195.5s114.333 58.5 207 58.5h304c147.333 0 221 -50.667 221 -152v-26c-2 -9.33301 -3.33301 -16 -4 -20h-72
c2 11.333 3 21.666 3 30.999c0 32 -11.333 55.667 -34 71c-25.333 17.333 -67 26 -125 26h-304c-70.667 0 -121.5 -12.833 -152.5 -38.5s-52.833 -74.167 -65.5 -145.5l-37 -202c-4.66699 -23.333 -7 -45.666 -7 -66.999c0 -41.333 12.167 -70.166 36.5 -86.499
s65.5 -24.5 123.5 -24.5h304c64.667 0 112.5 10.167 143.5 30.5s50.5 52.833 58.5 97.5h72c-12 -67.333 -40.333 -117.166 -85 -149.499s-112 -48.5 -202 -48.5z" />
    <glyph glyph-name="D" unicode="D" horiz-adv-x="902" 
d="M153 70h470c69.333 0 118 14.333 146 43c24 24.667 42.333 73 55 145l34 184c2.66699 15.333 4.66699 29 6 41s2 24.333 2 37c0 38.667 -10.667 65.667 -32 81s-59 23 -113 23h-469zM193 694h536c76 0 130 -11.333 162 -34s48 -63.334 48 -122.001
c0 -26.667 -3 -58.667 -9 -96l-34 -184c-17.333 -93.333 -46 -158.666 -86 -195.999c-44 -41.333 -112.667 -62 -206 -62h-536z" />
    <glyph glyph-name="E" unicode="E" horiz-adv-x="738" 
d="M60 0l125 694h615l-13 -70h-543l-41 -230h529l-13 -70h-529l-45 -254h543l-13 -70h-615z" />
    <glyph glyph-name="F" unicode="F" horiz-adv-x="738" 
d="M60 0l125 694h615l-13 -70h-543l-41 -230h529l-13 -70h-529l-58 -324h-72z" />
    <glyph glyph-name="G" unicode="G" horiz-adv-x="902" 
d="M610 0l-306.001 0.000976562c-79.333 0 -135.833 13.167 -169.5 39.5s-50.5 67.833 -50.5 124.5c0 24 2.33301 48.667 7 74l38 210c17.333 92.667 48.5 158.167 93.5 196.5s114.167 57.5 207.5 57.5h306c146.667 0 220 -50.333 220 -151
c0 -12.667 -1.66699 -28.334 -5 -47.001h-72c1.33301 5.33301 2 10.833 2 16.5v12.5c0 32 -11.333 56 -34 72c-26 18 -67.333 27 -124 27h-306c-71.333 0 -121.666 -12.833 -150.999 -38.5s-51 -74.167 -65 -145.5l-38 -210c-4 -22 -6 -41.667 -6 -59
c0 -40.667 12.167 -69 36.5 -85s65.166 -24 122.499 -24h306c68.667 0 116.334 10 143.001 30c30 22.667 51.333 68.334 64 137.001l4 23h-341l12 70h417l-9 -54c-19.333 -108.667 -49.5 -181.834 -90.5 -219.501s-111.5 -56.5 -211.5 -56.5z" />
    <glyph glyph-name="H" unicode="H" horiz-adv-x="880" 
d="M68 0l125 694h72l-54 -300h616l54 300h72l-125 -694h-72l58 322h-616l-58 -322h-72z" />
    <glyph glyph-name="I" unicode="I" horiz-adv-x="282" 
d="M174 0h-72l125 694h72z" />
    <glyph glyph-name="J" unicode="J" horiz-adv-x="782" 
d="M80 232l72 0.000976562l-6 -34c-2 -11.333 -3 -21.666 -3 -30.999c0 -32 12.667 -56.167 38 -72.5s67.333 -24.5 126 -24.5h187c65.333 0 114.166 11.167 146.499 33.5s52.833 58.5 61.5 108.5l87 482h72l-80 -446c-16 -88.667 -44.667 -151.334 -86 -188.001
c-44.667 -40 -115.667 -60 -213 -60h-188c-79.333 0 -137.166 12 -173.499 36s-54.5 59 -54.5 105c0 10 0.666992 18.167 2 24.5s2 11.166 2 14.499z" />
    <glyph glyph-name="K" unicode="K" horiz-adv-x="827" 
d="M50 0l125 694h72l-54 -297h116l493 298h126l-550 -332l437 -363h-126l-389 327h-119l-59 -327h-72z" />
    <glyph glyph-name="L" unicode="L" 
d="M68 0l125 694h72l-112 -624h523l-13 -70h-595z" />
    <glyph glyph-name="M" unicode="M" horiz-adv-x="1128" 
d="M1193 694h-154l-457 -592l-245 592h-154l-125 -694h72l115 638h41l259 -638h37l489 638h40l-115 -638h72z" />
    <glyph glyph-name="N" unicode="N" horiz-adv-x="880" 
d="M58 0l125 694h160l422 -622l112 622h72l-125 -694h-104l-435 640h-40l-115 -640h-72z" />
    <glyph glyph-name="O" unicode="O" horiz-adv-x="912" 
d="M875 460c2 14 3.66699 26.332 5 36.999s2 21 2 31c0 40.667 -11.333 68.167 -34 82.5s-63 21.5 -121 21.5h-304c-66.667 0 -115.834 -12.167 -147.501 -36.5s-54.5 -69.5 -68.5 -135.5l-40 -222c-4 -22 -6 -41.667 -6 -59c0 -41.333 12.333 -69.833 37 -85.5
s66 -23.5 124 -23.5h304c72.667 0 122.334 10.833 149.001 32.5s46.667 66.834 60 135.501zM907 237.999c-18.667 -96.667 -49.002 -161 -91.002 -193c-39.333 -30 -106.666 -45 -201.999 -45h-304c-79.333 0 -136.333 12 -171 36s-52 65 -52 123c0 22 2.66699 48.333 8 79
l39 216c16.667 90.667 46.334 154 89.001 190c45.333 38.667 116.333 58 213 58h304c74.667 0 128 -10.667 160 -32c36 -24 54 -67.333 54 -130c0 -23.333 -2.66699 -52 -8 -86z" />
    <glyph glyph-name="P" unicode="P" horiz-adv-x="814" 
d="M62 1l125 693h468c74 0 127.833 -11.5 161.5 -34.5s50.5 -61.167 50.5 -114.5c0 -7.33301 -0.5 -15.5 -1.5 -24.5s-2.83301 -22.5 -5.5 -40.5c-13.333 -75.333 -40.5 -126.333 -81.5 -153s-106.167 -40 -195.5 -40h-397l-52 -286h-72zM198 357l418 0.000976562
c58.667 0 99 7.33301 121 22c25.333 16.667 42.333 50.334 51 101.001c2 8 3.33301 16.167 4 24.5s1 17.166 1 26.499c0 33.333 -9.5 57.166 -28.5 71.499s-50.167 21.5 -93.5 21.5h-425z" />
    <glyph glyph-name="Q" unicode="Q" horiz-adv-x="912" 
d="M835 238l39.001 216.001c2.66699 16.667 4.66699 30.667 6 42s2 23 2 35c0 41.333 -11 68.166 -33 80.499s-63 18.5 -123 18.5h-304c-72 0 -123.333 -12.667 -154 -38s-52 -71.333 -64 -138l-39 -216c-4 -23.333 -6 -43.333 -6 -60c0 -40.667 12.333 -68.834 37 -84.501
s66.667 -23.5 126 -23.5h302c29.333 0 53.666 1.5 72.999 4.5s33.333 6.83301 42 11.5l-213 156l54 58l222 -164c8 12.667 15 29 21 49c4 12.667 8 30.334 12 53.001zM860.001 98.001l48.9971 -38.002l-51 -60l-51 40c-21.333 -14.667 -46.166 -25 -74.499 -31
s-67.833 -9 -118.5 -9h-306c-76.667 0 -132 11.333 -166 34c-37.333 25.333 -56 68 -56 128c0 24.667 2.33301 50 7 76l39 216c16.667 87.333 46 149.333 88 186c46 40 117.333 60 214 60h304c76 0 129.667 -10.667 161 -32c36 -24.667 54 -68.667 54 -132
c0 -26 -2.33301 -53.333 -7 -82l-39 -216c-5.33301 -29.333 -11.666 -55.166 -18.999 -77.499s-16.666 -43.166 -27.999 -62.499z" />
    <glyph glyph-name="R" unicode="R" horiz-adv-x="860" 
d="M248 623l-47.999 -268.001h450c48 0 86 11 114 33c31.333 24.667 51.666 64.334 60.999 119.001c1.33301 9.33301 2 16.333 2 21c0 28 -11 50.833 -33 68.5s-52.333 26.5 -91 26.5h-455zM187.001 284.999l-51 -286h-72l125 694h500c72.667 0 126.667 -14.333 162 -43
c32 -26 48 -63 48 -111v-26c-2 -8.66699 -3.33301 -15 -4 -19c-8.66699 -46.667 -25.667 -84 -51 -112c-16.667 -18.667 -42.334 -37 -77.001 -55c18.667 -4 33.667 -15.167 45 -33.5s17 -43.833 17 -76.5c0 -8 -0.333008 -16.667 -1 -26s-2 -19 -4 -29l-29 -162h-72l31 170
c0.666992 6.66699 1.5 13 2.5 19s1.5 12.667 1.5 20c0 28 -7.66699 47.667 -23 59s-38.666 17 -69.999 17h-478z" />
    <glyph glyph-name="S" unicode="S" horiz-adv-x="922" 
d="M144 498c12.667 69.333 39.6689 119.334 81.002 150.001s101.333 46 180 46h350c136.667 0 205 -50 205 -150v-28c-2 -8 -3.33301 -14 -4 -18h-72c1.33301 6.66699 2 16 2 28c0 32.667 -11.333 56.667 -34 72c-25.333 17.333 -67 26 -125 26h-334
c-61.333 0 -105 -10.333 -131 -31c-22.667 -18 -38 -49.667 -46 -95c-1.33301 -6 -2.33301 -11.5 -3 -16.5s-1 -10.5 -1 -16.5c0 -26.667 11.667 -45.5 35 -56.5s66 -16.5 128 -16.5h310c79.333 0 137.333 -11 174 -33s55 -57 55 -105v-26c-2 -8 -3.33301 -14 -4 -18l-3 -14
c-16 -72.667 -43.5 -123.5 -82.5 -152.5s-99.167 -43.5 -180.5 -43.5h-358c-61.333 0 -109 12.667 -143 38s-51 63.333 -51 114v18.5c0 5 1.33301 14.167 4 27.5h72c-0.666992 -4.66699 -1.16699 -10 -1.5 -16s-0.5 -10.333 -0.5 -13c0 -32.667 11 -56.667 33 -72
c25.333 -18 66.666 -27 123.999 -27h328c54 0 96.167 10.167 126.5 30.5s49.833 52.833 58.5 97.5c0.666992 6 1.5 12 2.5 18s1.5 12.333 1.5 19c0 31.333 -11.167 53.666 -33.5 66.999s-60.833 20 -115.5 20h-349c-74.667 0 -127.334 10 -158.001 30s-46 50.667 -46 92
c0 16 2 34 6 54z" />
    <glyph glyph-name="T" unicode="T" horiz-adv-x="792" 
d="M147 694h748l-13 -70h-339l-112 -624h-72l112 624h-337z" />
    <glyph glyph-name="U" unicode="U" horiz-adv-x="922" 
d="M185 694h72l-87 -484c-1.33301 -6 -2.33301 -13 -3 -21s-1 -14.667 -1 -20c0 -34 12.5 -59 37.5 -75s67.5 -24 127.5 -24h305c62.667 0 109.667 11.667 141 35s51.333 59.666 60 108.999l86 480h72l-82 -454c-16.667 -93.333 -48.667 -157.666 -96 -192.999
c-42 -31.333 -107 -47 -195 -47h-304c-78 0 -133.667 11 -167 33c-37.333 24.667 -56 66.667 -56 126c0 22 2.66699 48.333 8 79z" />
    <glyph glyph-name="V" unicode="V" horiz-adv-x="842" 
d="M871 694l-431 -616h-15l-209 616h-84l247 -694h77l499 694h-84z" />
    <glyph glyph-name="W" unicode="W" horiz-adv-x="1280" 
d="M717 694l-354 -620h-16l-134 620h-80l159 -694h102l349 614l129 -614h102l409 694h-80l-358 -620h-16l-130 620h-82z" />
    <glyph glyph-name="X" unicode="X" horiz-adv-x="858" 
d="M831 694l-345 -294l-239 294h-91l262 -326l-434 -368h96l394 334l274 -334h96l-302 368l385 326h-96z" />
    <glyph glyph-name="Y" unicode="Y" horiz-adv-x="804" 
d="M832 695l-361 -306l-251 306h-95l297 -363l-60 -332h78l60 332l427 363h-95z" />
    <glyph glyph-name="Z" unicode="Z" horiz-adv-x="792" 
d="M173 694h677l-10 -54l-664 -570h577l-13 -70h-692l10 56l668 568h-566z" />
    <glyph glyph-name="bracketleft" unicode="[" horiz-adv-x="262" 
d="M201 762h140l-7 -38h-72l-143 -798h77l-7 -38h-145z" />
    <glyph glyph-name="backslash" unicode="\" horiz-adv-x="316" 
d="M145 728h78l75 -818h-76z" />
    <glyph glyph-name="bracketright" unicode="]" horiz-adv-x="262" 
d="M331 762l-157 -874h-145l7 39h77l143 797h-72l7 38h140z" />
    <glyph glyph-name="asciicircum" unicode="^" horiz-adv-x="392" 
d="M123 528l171 140h40l121 -140h-32l-116 98l-152 -98h-32z" />
    <glyph glyph-name="underscore" unicode="_" horiz-adv-x="392" 
d="M2 -2h388l-7 -38h-388z" />
    <glyph glyph-name="grave" unicode="`" horiz-adv-x="282" 
d="M209 728l130 -136l-33 -24l-148 112z" />
    <glyph glyph-name="a" unicode="a" horiz-adv-x="711" 
d="M81 186c6.66699 36 23.665 63.6699 50.998 83.0029c30.667 22 72 33 124 33h288c34 0 58 -6.33301 72 -19c4.66699 -4 8.33398 -10.667 11.001 -20l13 68c1.33301 9.33301 2 16.666 2 21.999c0 25.333 -7.66699 44.666 -23 57.999c-17.333 15.333 -44.333 23 -81 23h-191
c-50.667 0 -88 -10.667 -112 -32c-8 -6.66699 -15 -17.334 -21 -32.001l-4 -18h-74l4 18c-3.33301 28 16.334 56.667 59.001 86c36.667 25.333 83.667 38 141 38h217c55.333 0 95.666 -10.667 120.999 -32s38 -53 38 -95v-28c-2 -8.66699 -3.33301 -15 -4 -19l-58 -320h-72
l7 40c-10 -9.33301 -18.333 -16 -25 -20c-21.333 -13.333 -44.666 -20 -69.999 -20h-280c-48 -0 -84.333 7.83301 -109 23.5s-37 40.5 -37 74.5c0 8.66699 1 18 3 28zM271.998 242.003c-42.667 0 -72.332 -5.66602 -88.999 -16.999s-27.334 -29.666 -32.001 -54.999l-7 -36
c-1.33301 -8 -2 -14 -2 -18c0 -18.667 7.16699 -32.334 21.5 -41.001s39.5 -13 75.5 -13h244c38 0 66.833 7.16699 86.5 21.5s32.167 37.166 37.5 68.499c1.33301 4 2 8.33301 2 13v10c0 44.667 -31 67 -93 67h-244z" />
    <glyph glyph-name="b" unicode="b" horiz-adv-x="728" 
d="M268 -2c-44 0 -79.6689 9.33301 -107.002 28c-8.66699 6 -17.667 15.333 -27 28l-10 -54h-72l125 694h72l-46 -254c12.667 12.667 24.334 22 35.001 28c32.667 18.667 72.334 28 119.001 28h194c59.333 0 104 -13.167 134 -39.5s45 -62.833 45 -109.5v-26
c-2 -8.66699 -3.33301 -15 -4 -19l-19 -108c-12.667 -63.333 -39 -111.833 -79 -145.5s-95.333 -50.5 -166 -50.5h-194zM156.998 194c-2 -10 -3.00098 -19.668 -3.00098 -29.001c0 -32.667 11.167 -58.667 33.5 -78s55.833 -29 100.5 -29h158c57.333 0 101 11 131 33
s49.333 56.333 58 103l19 108c2 11.333 3 22 3 32c0 32.667 -11.667 57.834 -35 75.501s-59.333 26.5 -108 26.5h-160c-50.667 0 -91.167 -12.333 -121.5 -37s-49.166 -57 -56.499 -97l-11 -54z" />
    <glyph glyph-name="c" unicode="c" 
d="M471 58c54.667 0 96.334 14.3311 125.001 42.998c18 18 29.333 39 34 63l1 10h72l-1 -8c-4.66699 -25.333 -13 -47.666 -25 -66.999c-41.333 -67.333 -112.333 -101 -213 -101h-222c-58 0 -101 12 -129 36s-42 58.333 -42 103v17c0 6 1.33301 15.333 4 28l22 124
c10 56.667 34.667 101.667 74 135c42.667 36.667 98 55 166 55h216l2 -2c69.333 0 118.666 -17 147.999 -51c20 -23.333 30 -53 30 -89c0 -9.33301 -0.666992 -17.333 -2 -24l-1 -8h-72l1 6c0.666992 2.66699 1 8.33398 1 17.001c0 24 -6.66699 43.333 -20 58
c-19.333 22 -52 33 -98 33h-216c-42.667 0 -77.5 -10.833 -104.5 -32.5s-44.5 -54.167 -52.5 -97.5l-22 -124c-2 -10 -3 -19 -3 -27c0 -30.667 10.167 -54.5 30.5 -71.5s46.5 -25.5 78.5 -25.5h218z" />
    <glyph glyph-name="d" unicode="d" horiz-adv-x="728" 
d="M452 -2h-194.001c-119.333 0 -179 49.667 -179 149v18.5c0 5 1.33301 14.5 4 28.5l8 54l11 54c12 59.333 37.667 105.666 77 138.999c42.667 36.667 98.667 55 168 55h194c44.667 0 80.334 -9.33301 107.001 -28c8.66699 -6 17.667 -15.333 27 -28l46 254h72l-125 -694
h-72l9 48c-16 -11.333 -30 -19.666 -42 -24.999c-36 -16.667 -73 -25 -111 -25zM632.999 194l19.001 108.001c1.33301 12 2 20.667 2 26c0 33.333 -11 59.666 -33 78.999s-55.667 29 -101 29h-160c-56.667 0 -99.834 -11.167 -129.501 -33.5s-48.5 -55.833 -56.5 -100.5
l-19 -108c-2 -13.333 -3 -25 -3 -35c0 -66 47 -99 141 -99h160c51.333 0 92 12.167 122 36.5s49.333 56.833 58 97.5z" />
    <glyph glyph-name="e" unicode="e" horiz-adv-x="728" 
d="M662 302c2 11.333 3 22 3 32c0 32 -9.66699 57 -29 75s-47 27 -83 27h-226c-38 0 -70.833 -12.167 -98.5 -36.5s-45.167 -56.833 -52.5 -97.5h486zM504 -2l-242.002 -0.00195312c-122.667 0 -184 46.333 -184 139c0 12.667 1.66699 28.334 5 47.001l24 130
c8.66699 48.667 34 90.334 76 125.001c46 38 101.333 57 166 57h208c60 0 106.333 -14 139 -42c30 -25.333 45 -59 45 -101c0 -10.667 -1 -21 -3 -31l-14 -80h-558l-9 -48c-1.33301 -6.66699 -2.33301 -13 -3 -19s-1 -12.333 -1 -19c0 -34.667 10.5 -59.667 31.5 -75
s49.167 -23 84.5 -23h235c38 0 68 8.5 90 25.5s35.667 38.5 41 64.5l1 10h72l-1 -10c-7.33301 -38 -25.666 -70.667 -54.999 -98c-37.333 -34.667 -86.666 -52 -147.999 -52z" />
    <glyph glyph-name="f" unicode="f" horiz-adv-x="392" 
d="M159 438h-62l11 60h62l2 12c10.667 61.333 34 107.333 70 138s83 46 141 46h104l-11 -62h-104c-36 0 -64.5 -9.83301 -85.5 -29.5s-35.5 -51.167 -43.5 -94.5l-1 -10h212l-11 -60h-212l-79 -438h-72z" />
    <glyph glyph-name="g" unicode="g" horiz-adv-x="738" 
d="M89 182l12.998 82l9 44c12 60 36.667 105.333 74 136c40.667 33.333 94.667 50 162 50h208c44.667 0 80 -9 106 -27c8.66699 -6 17.334 -15 26.001 -27l10 54h72l-98 -546c-9.33301 -49.333 -31.666 -87.333 -66.999 -114c-40.667 -30.667 -98 -46 -172 -46h-200
c-52 0 -93 10 -123 30s-45 46.667 -45 80c0 4 0.666992 11.333 2 22h78c-0.666992 -2 -1 -5.33301 -1 -10c0 -17.333 8.83301 -32 26.5 -44s44.5 -18 80.5 -18h188c46 0 83 9.16699 111 27.5s44.333 40.5 49 66.5l20 116c-7.33301 -12.667 -22.333 -24.667 -45 -36
c-30 -14.667 -64.333 -22 -103 -22h-206c-119.333 0 -179 45.667 -179 137v17c0 6 1.33301 15.333 4 28zM644.998 194l18.999 107.999c1.33301 12 2 21 2 27c0 32.667 -10.667 58.334 -32 77.001s-54.666 28 -99.999 28h-164c-58.667 0 -102.5 -10.5 -131.5 -31.5
s-47.833 -54.5 -56.5 -100.5l-19 -108c-2 -12 -3 -23.667 -3 -35c0 -66 47.667 -99 143 -99h164c50 0 90 12.167 120 36.5s49.333 56.833 58 97.5z" />
    <glyph glyph-name="h" unicode="h" horiz-adv-x="728" 
d="M359 494l191.998 0.000976562c64 0 111.333 -14 142 -42c27.333 -25.333 41 -61.333 41 -108v-26c-2 -8.66699 -3.33301 -14.667 -4 -18l-54 -300h-72l54 300c2 11.333 3 21.666 3 30.999c0 33.333 -10.833 58.833 -32.5 76.5s-51.167 26.5 -88.5 26.5h-192
c-43.333 0 -80.166 -11.5 -110.499 -34.5s-49.5 -56.167 -57.5 -99.5l-54 -300h-72l125 694h72l-49 -270c10.667 16 21.334 27.667 32.001 35c32 23.333 73.667 35 125 35z" />
    <glyph glyph-name="i" unicode="i" horiz-adv-x="228" 
d="M78 0l89 494h72l-89 -494h-72zM203 694h72l-13 -72h-72z" />
    <glyph glyph-name="j" unicode="j" horiz-adv-x="282" 
d="M199 493l72 0.999023l-103 -574c-8 -41.333 -28.333 -73.666 -61 -96.999s-73 -35 -121 -35h-6l13 72h16c19.333 0 36 4.66699 50 14c21.333 14 35 37.333 41 70zM235 693.999h72l-13 -72h-72z" />
    <glyph glyph-name="k" unicode="k" horiz-adv-x="620" 
d="M58 0l125 694h72l-70 -387h82l290 186h115l-352 -220l289 -274h-104l-254 246h-77l-44 -245h-72z" />
    <glyph glyph-name="l" unicode="l" horiz-adv-x="240" 
d="M90 0l125 694h72l-125 -694h-72z" />
    <glyph glyph-name="m" unicode="m" horiz-adv-x="1127" 
d="M175 304l-54.998 -304h-72l89 494h74l-14 -76c13.333 17.333 25.666 30 36.999 38c35.333 25.333 79.666 38 132.999 38h98c71.333 0 121 -16.333 149 -49c7.33301 -16.667 15 -33 23 -49c12 22 24.333 38.333 37 49c39.333 32.667 95 49 167 49h112
c60 0 107 -14 141 -42c31.333 -26 47 -59.667 47 -101c0 -9.33301 -1 -19 -3 -29l-58 -322h-72l55 308c2 9.33301 3 18.333 3 27c0 66 -47.333 99 -142 99h-74c-56 0 -100.5 -11 -133.5 -33s-53.833 -56.333 -62.5 -103l-54 -298h-72l54 300c2 10 3 19.333 3 28
c0 34.667 -12.5 61 -37.5 79s-58.833 27 -101.5 27h-78c-56.667 0 -103 -14.333 -139 -43c-30 -24 -48 -53 -54 -87z" />
    <glyph glyph-name="n" unicode="n" horiz-adv-x="738" 
d="M363 494h189.999c64 0 111.667 -15 143 -45c27.333 -26 41 -62.667 41 -110c0 -6.66699 -0.166992 -12.667 -0.5 -18s-1.83301 -16.333 -4.5 -33l-52 -287h-72l54 297c2 11.333 3 21.333 3 30c0 33.333 -11 59.333 -33 78s-52 28 -90 28h-190
c-43.333 0 -80.333 -12 -111 -36s-49.667 -57.333 -57 -100l-54 -297h-72l89 493h72l-14 -80c10.667 18 21.334 31.333 32.001 40c32 26.667 74 40 126 40z" />
    <glyph glyph-name="o" unicode="o" 
d="M98 302c12.667 60.667 37.667 106.999 75 138.999c42.667 36.667 101.334 55 176.001 55h198c65.333 0 113.666 -14.667 144.999 -44c26.667 -25.333 40 -60.666 40 -105.999v-26c-2 -8.66699 -3.33301 -14.667 -4 -18l-19 -108c-12 -58 -36.333 -103.667 -73 -137
c-44 -39.333 -103.333 -59 -178 -59h-198c-62.667 0 -109.167 12.5 -139.5 37.5s-45.5 62.167 -45.5 111.5v18.5c0 5 1.33301 14.5 4 28.5l8 54zM151 193.999c-2 -13.333 -3 -25 -3 -35c0 -67.333 42.333 -101 127 -101h188c46.667 0 84.667 10.667 114 32
c32 23.333 52 58 60 104l19 108c2 11.333 3 22 3 32c0 68 -42.667 102 -128 102h-188c-50 0 -88.833 -10.5 -116.5 -31.5s-46.5 -55.167 -56.5 -102.5z" />
    <glyph glyph-name="p" unicode="p" 
d="M357 494l193.999 -0.000976562c64 0 110.667 -14.333 140 -43c26 -25.333 39 -61 39 -107c0 -11.333 -0.666992 -20.666 -2 -27.999s-2 -12.666 -2 -15.999l-19 -108c-12.667 -60.667 -38 -107.334 -76 -140.001c-41.333 -36 -97.666 -54 -168.999 -54h-194
c-45.333 0 -81.333 9.33301 -108 28c-8.66699 6 -17.334 15.333 -26.001 28l-46 -256h-72l125 696h72l-10 -54c12.667 12 24.334 21 35.001 27c32 18 69.667 27 113 27h6zM175.999 299.999l-12.001 -54l-7 -54c-2 -10 -3 -20 -3 -30c0 -31.333 10.833 -56.5 32.5 -75.5
s54.5 -28.5 98.5 -28.5h161c54.667 0 97.667 10.5 129 31.5s51.333 55.167 60 102.5l19 108c2 12 3 23 3 33c0 33.333 -12.167 58.5 -36.5 75.5s-59.833 25.5 -106.5 25.5h-160c-50.667 0 -91.167 -12.333 -121.5 -37s-49.166 -57 -56.499 -97z" />
    <glyph glyph-name="q" unicode="q" horiz-adv-x="728" 
d="M547 494h3.99902c40.667 0 74.667 -9 102 -27c8.66699 -6 18 -15 28 -27l10 54h72l-125 -696h-72l45 250c-7.33301 -6.66699 -13.666 -11.667 -18.999 -15c-35.333 -23.333 -80 -35 -134 -35h-194c-119.333 0 -179 49 -179 147v19c0 5.33301 1.33301 15 4 29l19 108
c12 61.333 37.667 108.333 77 141c42 34.667 98 52 168 52h194zM657.999 300c1.33301 12 2.00098 20.668 2.00098 26.001c0 33.333 -10.833 59.666 -32.5 78.999s-54.834 29 -99.501 29h-160c-55.333 0 -98.333 -10.167 -129 -30.5s-50.334 -54.833 -59.001 -103.5l-19 -108
c-2 -12 -3 -23 -3 -33c0 -34.667 11.833 -60.167 35.5 -76.5s59.167 -24.5 106.5 -24.5h160c49.333 0 89.333 12.5 120 37.5s50.334 57.167 59.001 96.5z" />
    <glyph glyph-name="r" unicode="r" horiz-adv-x="681" 
d="M132 0l-72 -0.000976562l89 494h72l-12 -64c10.667 14.667 20.667 25.334 30 32.001c29.333 21.333 67.333 32 114 32h140c68.667 0 118 -18 148 -54c20.667 -25.333 31 -58 31 -98c0 -14.667 -1 -26 -3 -34l-2 -14h-72l1 6c1.33301 8 2 16.667 2 26
c0 28.667 -7 51.667 -21 69c-20.667 26 -54.667 39 -102 39h-128c-38.667 0 -73.167 -11.667 -103.5 -35s-48.5 -50.333 -54.5 -81z" />
    <glyph glyph-name="s" unicode="s" horiz-adv-x="728" 
d="M148 158l-4.99902 -28.0029c-1.33301 -9.33301 -2 -15.666 -2 -18.999c0 -17.333 7.33301 -30.5 22 -39.5s42.667 -13.5 84 -13.5h254c72.667 0 113.334 23.333 122.001 70l4 22c0.666992 2.66699 1 5.33398 1 8.00098v6c0 37.333 -27.333 56 -82 56h-288
c-48.667 0 -85.5 7.66699 -110.5 23s-37.5 40.333 -37.5 75c0 8.66699 1 18.667 3 30l3 20c6.66699 36.667 26 66.334 58 89.001c36.667 26 83.667 39 141 39h234c72 0 124 -10.667 156 -32c25.333 -16.667 38 -39.667 38 -69c0 -4.66699 -0.666992 -11.667 -2 -21l-6 -34
h-72l6 32c2.66699 15.333 -2 28 -14 38c-20.667 17.333 -59 26 -115 26h-248c-62.667 0 -98 -22.667 -106 -68l-3 -20c-1.33301 -8 -2 -13.333 -2 -16c0 -34.667 27.667 -52 83 -52h288c100 0 150 -33.667 150 -101c0 -9.33301 -1 -19 -3 -29l-4 -22
c-6.66699 -36.667 -26 -66.667 -58 -90c-36.667 -26.667 -84.334 -40 -143.001 -40h-274c-56.667 0 -97.334 9.66699 -122.001 29c-20.667 16 -31 39 -31 69c0 8 1 16.667 3 26l6 36h72z" />
    <glyph glyph-name="t" unicode="t" horiz-adv-x="586" 
d="M180 176l46 260h373l11 60h-373l18 96h-72l-18 -96h-62l-11 -60h62l-44 -249c-2 -14 -3.33301 -23.5 -4 -28.5s-1 -12.833 -1 -23.5c0 -45.333 12.833 -79.166 38.5 -101.499s62.5 -33.5 110.5 -33.5h103c84 0 147.333 23.667 190 71c27.333 30 45 68.333 53 115l3 14
h-72l-1 -6c-9.33301 -52 -28 -87.333 -56 -106s-65.667 -28 -113 -28h-96c-27.333 0 -48.333 6.66699 -63 20c-16.667 15.333 -25 37 -25 65c0 9.33301 1 19.666 3 30.999z" />
    <glyph glyph-name="u" unicode="u" horiz-adv-x="728" 
d="M464 -2h-193.999c-64 0 -111 12.333 -141 37s-45 61 -45 109c0 13.333 1.66699 30 5 50l54 300h72l-55 -306c-2 -11.333 -3 -22 -3 -32c0 -32 10.667 -56.333 32 -73s51.666 -25 90.999 -25h194c39.333 0 74.333 10.333 105 31c34 22.667 54.667 53.667 62 93l56 312h72
l-89 -494h-70l11 60c-16 -14 -29.667 -24.333 -41 -31c-35.333 -20.667 -74 -31 -116 -31z" />
    <glyph glyph-name="v" unicode="v" horiz-adv-x="630" 
d="M637 494l-299 -416h-15l-149 416h-80l184 -494h77l362 494h-80z" />
    <glyph glyph-name="w" unicode="w" horiz-adv-x="907" 
d="M150 492l90 -414h17l236 414h88l86 -414h17l240 414h77l-290 -492h-94l-91 435l-247 -435h-94l-112 492h77z" />
    <glyph glyph-name="x" unicode="x" horiz-adv-x="637" 
d="M133 494h88l153 -182l215 182h88l-269 -226l220 -268h-90l-182 222l-264 -222h-86l314 268z" />
    <glyph glyph-name="y" unicode="y" horiz-adv-x="585" 
d="M91 494h75l154 -424h14l258 424h75l-349 -559c-34 -54.667 -64.667 -91.667 -92 -111c-34 -24 -80 -36 -138 -36h-24l11 60h42c38 0 70.333 13.667 97 41c16 16 41.667 53 77 111h-18z" />
    <glyph glyph-name="z" unicode="z" horiz-adv-x="630" 
d="M133 494h523l-10 -54l-486 -380h424l-11 -60h-533l10 56l488 378h-416z" />
    <glyph glyph-name="braceleft" unicode="{" horiz-adv-x="294" 
d="M373 696c-64 0 -101.668 -32 -113.001 -96l-35 -194c-5.33301 -28 -19.666 -52.667 -42.999 -74c-8 -6.66699 -19.667 -14.667 -35 -24c10 -9.33301 17.333 -17.333 22 -24c14.667 -20 22 -40 22 -60c0 -6 -0.333008 -10.667 -1 -14l-35 -194
c-2 -11.333 -3 -21.333 -3 -30c0 -42.667 27.333 -64 82 -64l-10 -54h-6c-82 0 -123 36.333 -123 109v15.5c0 4.33301 1.33301 12.166 4 23.499l35 194c0.666992 3.33301 1 8 1 14c0 20 -8 40 -24 60c-5.33301 6.66699 -13.333 14.667 -24 24c16.667 10.667 29 19.667 37 27
c26 23.333 41 47 45 71l35 194c9.33301 48.667 27 85.334 53 110.001c30 28 72 42 126 42z" />
    <glyph glyph-name="bar" unicode="|" horiz-adv-x="173" 
d="M191 740h56l-157 -874h-56z" />
    <glyph glyph-name="braceright" unicode="}" horiz-adv-x="294" 
d="M173 696l5.00098 40.001l5 16c45.333 0 78 -9 98 -27s30 -44.667 30 -80v-16c-2.66699 -12.667 -4.33398 -22.334 -5.00098 -29.001l-35 -194c-0.666992 -2.66699 -1 -5.33398 -1 -8.00098v-6c0 -21.333 8 -41.666 24 -60.999c5.33301 -6 13.666 -13.667 24.999 -23
c-16 -11.333 -28.333 -20.666 -37 -27.999c-26.667 -24 -42 -47.333 -46 -70l-35 -194c-8.66699 -48.667 -28 -85.5 -58 -110.5s-68.333 -37.5 -115 -37.5h-4l3 28l7 26c32.667 0 57.834 7.5 75.501 22.5s29.5 38.833 35.5 71.5l35 194c4 22.667 18 45.667 42 69
c8 7.33301 19.667 17 35 29l-13 10c-20.667 19.333 -31 42 -31 68c0 4 0.666992 10.667 2 20l35 194c2 11.333 3 21.666 3 30.999c0 22 -6.33301 38.333 -19 49s-33 16 -61 16z" />
    <glyph glyph-name="asciitilde" unicode="~" horiz-adv-x="554" 
d="M212 346l-68 -0.000976562c12 22.667 23.333 39.667 34 51c33.333 34 76.333 51 129 51c28.667 0 53.667 -8.66699 75 -26s41.666 -26 60.999 -26l2 -2c24 0 43 8.33301 57 25c4.66699 5.33301 9.33398 13.666 14.001 24.999h66c-11.333 -23.333 -22 -40.666 -32 -51.999
c-31.333 -34.667 -73 -52 -125 -52c-28 0.666992 -52.5 9.83398 -73.5 27.501s-43.833 26.5 -68.5 26.5h-6c-19.333 0 -36 -8 -50 -24c-4 -5.33301 -9 -13.333 -15 -24z" />
    <glyph glyph-name="c142" horiz-adv-x="694" 
d="M128 0l-72 0.00195312l94 524c6 35.333 16 64.333 30 87c9.33301 15.333 22.666 31 39.999 47c13.333 11.333 31.166 20.833 53.499 28.5s47.166 11.5 74.499 11.5h166c42.667 0 77.834 -12.833 105.501 -38.5s41.5 -60.5 41.5 -104.5c0 -10.667 -1 -21.667 -3 -33
c-7.33301 -41.333 -22.333 -73 -45 -95c-13.333 -13.333 -35 -23 -65 -29c34.667 -7.33301 60.334 -15.333 77.001 -24c52 -27.333 78 -69.333 78 -126c0 -11.333 -1 -24 -3 -38c-12.667 -68.667 -42.334 -121.667 -89.001 -159c-44 -35.333 -97 -53 -159 -53h-4
c-60 0 -104.667 13 -134 39c-20 18 -31.333 39 -34 63l68 32c0 -19.333 11.333 -35.333 34 -48c18.667 -10.667 42.667 -16 72 -16l9 2c49.333 0 88 13.667 116 41c24.667 24 41 57.667 49 101c2 10 3 19.333 3 28c0 74.667 -70.667 112 -212 112l11 60
c48.667 0 84 7 106 21c25.333 16 42 45 50 87c1.33301 10.667 2 18 2 22c0 25.333 -7.66699 45.666 -23 60.999s-36.666 23 -63.999 23h-156c-39.333 0 -67.333 -7.33301 -84 -22c-9.33301 -8.66699 -16.666 -17.667 -21.999 -27c-7.33301 -12.667 -13 -30.334 -17 -53.001z
" />
    <glyph glyph-name="c142" unicode="&#x40b;" horiz-adv-x="694" 
d="M128 0l-72 0.00195312l94 524c6 35.333 16 64.333 30 87c9.33301 15.333 22.666 31 39.999 47c13.333 11.333 31.166 20.833 53.499 28.5s47.166 11.5 74.499 11.5h166c42.667 0 77.834 -12.833 105.501 -38.5s41.5 -60.5 41.5 -104.5c0 -10.667 -1 -21.667 -3 -33
c-7.33301 -41.333 -22.333 -73 -45 -95c-13.333 -13.333 -35 -23 -65 -29c34.667 -7.33301 60.334 -15.333 77.001 -24c52 -27.333 78 -69.333 78 -126c0 -11.333 -1 -24 -3 -38c-12.667 -68.667 -42.334 -121.667 -89.001 -159c-44 -35.333 -97 -53 -159 -53h-4
c-60 0 -104.667 13 -134 39c-20 18 -31.333 39 -34 63l68 32c0 -19.333 11.333 -35.333 34 -48c18.667 -10.667 42.667 -16 72 -16l9 2c49.333 0 88 13.667 116 41c24.667 24 41 57.667 49 101c2 10 3 19.333 3 28c0 74.667 -70.667 112 -212 112l11 60
c48.667 0 84 7 106 21c25.333 16 42 45 50 87c1.33301 10.667 2 18 2 22c0 25.333 -7.66699 45.666 -23 60.999s-36.666 23 -63.999 23h-156c-39.333 0 -67.333 -7.33301 -84 -22c-9.33301 -8.66699 -16.666 -17.667 -21.999 -27c-7.33301 -12.667 -13 -30.334 -17 -53.001z
" />
    <glyph glyph-name="c144" horiz-adv-x="784" 
d="M230 152c-31.333 51.333 -52.833 95.0029 -64.5 131.003s-17.5 70.667 -17.5 104c0 7.33301 0.166992 13 0.5 17s1.5 13.333 3.5 28c12 69.333 46.667 124.666 104 165.999c32.667 22.667 73 34 121 34c37.333 0 67 -8.5 89 -25.5s40.333 -25.5 55 -25.5
c9.33301 0 16.666 0.666992 21.999 2c14.667 4 30.667 12.333 48 25c23.333 16 53 24 89 24c20 0 39.167 -2.83301 57.5 -8.5s33.833 -13.834 46.5 -24.501c5.33301 -4.66699 10 -10.334 14 -17.001s6 -12.334 6 -17.001c-20 -14 -35.333 -26 -46 -36
c-32.667 -31.333 -52.334 -65 -59.001 -101l-2 -22c0 -38 13 -69 39 -93c8.66699 -8 22 -16.333 40 -25c-13.333 -24 -28.666 -47 -45.999 -69s-37.5 -44.167 -60.5 -66.5s-45.167 -38.666 -66.5 -48.999s-41.666 -15.5 -60.999 -15.5c-30 0 -52.333 11.333 -67 34
c-6.66699 10.667 -18.667 16 -36 16c-16 0 -30.333 -5.33301 -43 -16c-22.667 -20.667 -46.667 -31 -72 -31c-18.667 0 -35.5 4.66699 -50.5 14s-29.5 25 -43.5 47zM530 621.003c-12 -1.33301 -16.666 4.33105 -13.999 16.998c5.33301 30.667 24.166 60.5 56.499 89.5
s62.5 43.5 90.5 43.5c6.66699 0 10 -2 10 -6c0 -2.66699 -1 -6 -3 -10c-8.66699 -29.333 -27 -57.666 -55 -84.999s-56.333 -43.666 -85 -48.999z" />
    <glyph glyph-name="c144" unicode="&#x452;" horiz-adv-x="784" 
d="M230 152c-31.333 51.333 -52.833 95.0029 -64.5 131.003s-17.5 70.667 -17.5 104c0 7.33301 0.166992 13 0.5 17s1.5 13.333 3.5 28c12 69.333 46.667 124.666 104 165.999c32.667 22.667 73 34 121 34c37.333 0 67 -8.5 89 -25.5s40.333 -25.5 55 -25.5
c9.33301 0 16.666 0.666992 21.999 2c14.667 4 30.667 12.333 48 25c23.333 16 53 24 89 24c20 0 39.167 -2.83301 57.5 -8.5s33.833 -13.834 46.5 -24.501c5.33301 -4.66699 10 -10.334 14 -17.001s6 -12.334 6 -17.001c-20 -14 -35.333 -26 -46 -36
c-32.667 -31.333 -52.334 -65 -59.001 -101l-2 -22c0 -38 13 -69 39 -93c8.66699 -8 22 -16.333 40 -25c-13.333 -24 -28.666 -47 -45.999 -69s-37.5 -44.167 -60.5 -66.5s-45.167 -38.666 -66.5 -48.999s-41.666 -15.5 -60.999 -15.5c-30 0 -52.333 11.333 -67 34
c-6.66699 10.667 -18.667 16 -36 16c-16 0 -30.333 -5.33301 -43 -16c-22.667 -20.667 -46.667 -31 -72 -31c-18.667 0 -35.5 4.66699 -50.5 14s-29.5 25 -43.5 47zM530 621.003c-12 -1.33301 -16.666 4.33105 -13.999 16.998c5.33301 30.667 24.166 60.5 56.499 89.5
s62.5 43.5 90.5 43.5c6.66699 0 10 -2 10 -6c0 -2.66699 -1 -6 -3 -10c-8.66699 -29.333 -27 -57.666 -55 -84.999s-56.333 -43.666 -85 -48.999z" />
    <glyph glyph-name="nonbreakingspace" unicode="&#xa0;" horiz-adv-x="387" 
d="M175 603c10 -10 25.667 -17.8311 47 -23.498s46.333 -8.5 75 -8.5s54.5 2.5 77.5 7.5s43.167 13.167 60.5 24.5c8 5.33301 14.667 8 20 8c6.66699 0 10 -3 10 -9c0 -4 -1.66699 -7.66699 -5 -11c-18 -16.667 -42.5 -29.334 -73.5 -38.001s-62.833 -13 -95.5 -13
c-35.333 0 -66 4.16699 -92 12.5s-44.667 21.166 -56 38.499c-2 4.66699 -1.5 9.16699 1.5 13.5s7.5 6.5 13.5 6.5s11.667 -2.66699 17 -8z" />
    <glyph glyph-name="exclamdown" unicode="&#xa1;" horiz-adv-x="262" 
d="M165 384h72l-95 -528h-72zM267 550l-14 -78h-72l14 78h72z" />
    <glyph glyph-name="exclamdown" unicode="&#x40e;" horiz-adv-x="262" 
d="M165 384h72l-95 -528h-72zM267 550l-14 -78h-72l14 78h72z" />
    <glyph glyph-name="cent" unicode="&#xa2;" horiz-adv-x="792" 
d="M458 142l65.998 -0.000976562c47.333 0 85.333 11 114 33c32.667 25.333 49 51 49 77l73 2l-16 -45c-16.667 -33.333 -40.667 -61 -72 -83c-43.333 -30.667 -96.666 -46 -159.999 -46h-66l-10 -56h-72l10 56h-76c-56 0 -99.333 17 -130 51c-26 28.667 -39 63.667 -39 105
v13c1.33301 6 2 10.333 2 13l22 120c10.667 58 36.334 104.333 77.001 139c43.333 36.667 98 55 164 55h70l11 64h72l-11 -64h66c74 -0.666992 126.333 -21 157 -61c19.333 -25.333 29 -56.666 29 -93.999c0 -4 -0.166992 -7.5 -0.5 -10.5s-0.833008 -5.83301 -1.5 -8.5h-72
c0.666992 6 1 10.667 1 14c0 24.667 -6.33301 45 -19 61c-20.667 26 -55.667 39 -105 39h-66zM452.998 515.999h-70c-40 0 -74.333 -11.667 -103 -35s-47 -56.333 -55 -99l-22 -120c-1.33301 -9.33301 -2 -16 -2 -20c0 -29.333 11 -53.333 33 -72s47.333 -28 76 -28h76z" />
    <glyph glyph-name="cent" unicode="&#x45e;" horiz-adv-x="792" 
d="M458 142l65.998 -0.000976562c47.333 0 85.333 11 114 33c32.667 25.333 49 51 49 77l73 2l-16 -45c-16.667 -33.333 -40.667 -61 -72 -83c-43.333 -30.667 -96.666 -46 -159.999 -46h-66l-10 -56h-72l10 56h-76c-56 0 -99.333 17 -130 51c-26 28.667 -39 63.667 -39 105
v13c1.33301 6 2 10.333 2 13l22 120c10.667 58 36.334 104.333 77.001 139c43.333 36.667 98 55 164 55h70l11 64h72l-11 -64h66c74 -0.666992 126.333 -21 157 -61c19.333 -25.333 29 -56.666 29 -93.999c0 -4 -0.166992 -7.5 -0.5 -10.5s-0.833008 -5.83301 -1.5 -8.5h-72
c0.666992 6 1 10.667 1 14c0 24.667 -6.33301 45 -19 61c-20.667 26 -55.667 39 -105 39h-66zM452.998 515.999h-70c-40 0 -74.333 -11.667 -103 -35s-47 -56.333 -55 -99l-22 -120c-1.33301 -9.33301 -2 -16 -2 -20c0 -29.333 11 -53.333 33 -72s47.333 -28 76 -28h76z" />
    <glyph glyph-name="sterling" unicode="&#xa3;" horiz-adv-x="358" 
d="M60 0l14 78h78l-23 -130c-2 -11.333 -6.16699 -21.333 -12.5 -30s-14.833 -16.667 -25.5 -24h-38c21.333 14 34 32 38 54l9 52h-40zM220 0l14 78h78l-23 -130c-4 -23.333 -16.667 -41.333 -38 -54h-38c22.667 13.333 36 31.333 40 54l9 52h-42z" />
    <glyph glyph-name="sterling" unicode="&#x408;" horiz-adv-x="358" 
d="M60 0l14 78h78l-23 -130c-2 -11.333 -6.16699 -21.333 -12.5 -30s-14.833 -16.667 -25.5 -24h-38c21.333 14 34 32 38 54l9 52h-40zM220 0l14 78h78l-23 -130c-4 -23.333 -16.667 -41.333 -38 -54h-38c22.667 13.333 36 31.333 40 54l9 52h-42z" />
    <glyph glyph-name="yen" unicode="&#xa5;" horiz-adv-x="846" 
d="M147 694h100l246 -300l354 300h100l-426 -364h166l-10 -56h-166l-4 -26h166l-10 -56h-166l-35 -192h-78l35 192h-164l10 56h164l4 26h-164l10 56h166z" />
    <glyph glyph-name="yen" unicode="&#x490;" horiz-adv-x="846" 
d="M147 694h100l246 -300l354 300h100l-426 -364h166l-10 -56h-166l-4 -26h166l-10 -56h-166l-35 -192h-78l35 192h-164l10 56h164l4 26h-164l10 56h166z" />
    <glyph glyph-name="brokenbar" unicode="&#xa6;" horiz-adv-x="174" 
d="M191 740h56l-157 -874h-56z" />
    <glyph glyph-name="section" unicode="&#xa7;" horiz-adv-x="760" 
d="M589 208c42.667 0 73.832 7.49902 93.499 22.499s32.167 37.5 37.5 67.5l7 42c1.33301 8 2 13.667 2 17c0 18.667 -5.5 33.834 -16.5 45.501s-26.5 17.5 -46.5 17.5h-412c-32 0 -56.667 -8.66699 -74 -26s-28.666 -42 -33.999 -74l-7 -36
c-1.33301 -9.33301 -2 -16 -2 -20c0 -37.333 20.667 -56 62 -56h390zM775.998 287.999c-6 -32.667 -17.666 -59.667 -34.999 -81c-19.333 -24 -43.666 -38.333 -72.999 -43c5.33301 -4 9 -8 11 -12c8 -12.667 12 -27.667 12 -45c0 -9.33301 -0.666992 -17 -2 -23l-6 -34
c-6.66699 -36.667 -25.834 -66.5 -57.501 -89.5s-69.834 -34.5 -114.501 -34.5h-302c-40.667 0 -72 11 -94 33s-33 50.667 -33 86c0 9.33301 1 19 3 29l2 10h72l-2 -10c-1.33301 -10.667 -2 -18.667 -2 -24c0 -42.667 22.667 -64 68 -64h310c24 0 44 6.66699 60 20
s26.333 34 31 62c1.33301 8 2 13.667 2 17c0 18 -5.66699 32.667 -17 44s-27 17 -47 17h-378c-34 0 -61.167 9.5 -81.5 28.5s-30.5 43.167 -30.5 72.5c0 4.66699 0.666992 11.667 2 21l10 56c6.66699 37.333 22 69.333 46 96c19.333 22 38.333 35.333 57 40
c-5.33301 2 -9 4.33301 -11 7c-7.33301 8 -11 20.667 -11 38c0 8 1 17.667 3 29l6 34c7.33301 39.333 25.5 70.5 54.5 93.5s68.5 34.5 118.5 34.5h292c46.667 0 81.334 -10.667 104.001 -32c20.667 -19.333 31 -46.333 31 -81c0 -10 -1 -21 -3 -33l-2 -10h-72l2 10
c2 10 3 19.333 3 28c0 19.333 -5.83301 33.833 -17.5 43.5s-31.834 14.5 -60.501 14.5h-296c-28 0 -49.5 -6.5 -64.5 -19.5s-24.833 -32.5 -29.5 -58.5c-1.33301 -10.667 -2 -18 -2 -22c0 -37.333 20.667 -56 62 -56h372c37.333 0 67.333 -9.33301 90 -28s34 -43 34 -73
c0 -4.66699 -0.666992 -11.667 -2 -21z" />
    <glyph glyph-name="dieresis" unicode="&#xa8;" horiz-adv-x="738" 
d="M60 0l125 694h616l-13 -72h-544l-41 -228h528l-13 -72h-528l-45 -250h544l-13 -72h-616zM409 808h64l-11 -64h-64zM561 808h64l-11 -64h-64z" />
    <glyph glyph-name="dieresis" unicode="&#x401;" horiz-adv-x="738" 
d="M60 0l125 694h616l-13 -72h-544l-41 -228h528l-13 -72h-528l-45 -250h544l-13 -72h-616zM409 808h64l-11 -64h-64zM561 808h64l-11 -64h-64z" />
    <glyph glyph-name="copyright" unicode="&#xa9;" horiz-adv-x="652" 
d="M530 542c-7.33301 10.667 -14.001 18.332 -20.001 22.999c-19.333 15.333 -44 23 -74 23c-37.333 0 -68.666 -11 -93.999 -33s-40.666 -47.667 -45.999 -77c-1.33301 -9.33301 -2 -16 -2 -20c0 -25.333 8.66699 -46.666 26 -63.999s42.666 -26 75.999 -26
c30.667 0 58.667 8.66699 84 26c8 5.33301 17.333 14 28 26l-6 -32c-10.667 -9.33301 -20 -16 -28 -20c-24.667 -13.333 -51.667 -20 -81 -20c-39.333 0 -69.333 10.333 -90 31s-31 46 -31 76v11c1.33301 5.33301 2 9.33301 2 12c6.66699 35.333 24 65.333 52 90
c31.333 28 69.333 42 114 42c27.333 0 51.333 -7 72 -21c6.66699 -4.66699 14 -11.667 22 -21zM366.999 203.998c-79.333 0 -140.667 22.666 -184 67.999c-39.333 40.667 -59 93.334 -59 158.001v30c2 9.33301 3.33301 16 4 20c13.333 75.333 49 139.333 107 192
c64 58.667 141.333 88 232 88c78 0 138.333 -22.333 181 -67c38.667 -40.667 58 -93 58 -157c0 -16 -1.66699 -34 -5 -54c-13.333 -75.333 -48.333 -139 -105 -191c-62.667 -58 -139 -87 -229 -87zM462.998 737.997c-83.333 0 -154.667 -26.665 -214 -79.998
c-53.333 -48 -86 -106.667 -98 -176c-1.33301 -6.66699 -2.33301 -14.334 -3 -23.001s-1 -17 -1 -25c0 -58.667 18 -107 54 -145c40 -42 96.667 -63 170 -63c83.333 0 154 26.333 212 79c52.667 48 85 106.333 97 175c2.66699 16.667 4.16699 28.167 4.5 34.5
s0.5 11.5 0.5 15.5c0 59.333 -17.667 107.666 -53 144.999c-40 42 -96.333 63 -169 63z" />
    <glyph glyph-name="ordfeminine" unicode="&#xaa;" horiz-adv-x="912" 
d="M602 -2c90 0 157.331 16.167 201.998 48.5s73 82.166 85 149.499h-72c-8 -45.333 -27.333 -78 -58 -98s-78.667 -30 -144 -30h-304c-57.333 0 -98.333 8.16699 -123 24.5s-37 45.5 -37 87.5c0 12.667 0.333008 22.667 1 30s2.66699 19.333 6 36l14 77h600l13 70h-600
l10 55c12.667 70.667 34.334 119 65.001 145s81.667 39 153 39h304c56.667 0 98 -8.66699 124 -26c23.333 -15.333 35 -39 35 -71c0 -9.33301 -1 -19.666 -3 -30.999h72c2.66699 15.333 4 31 4 47c0 100.667 -73.667 151 -221 151h-304c-92.667 0 -161.667 -19.333 -207 -58
s-76.666 -104 -93.999 -196l-37 -202c-2.66699 -15.333 -4.66699 -29.5 -6 -42.5s-2 -26.167 -2 -39.5c0 -60 17 -102.667 51 -128s90.333 -38 169 -38h304z" />
    <glyph glyph-name="ordfeminine" unicode="&#x404;" horiz-adv-x="912" 
d="M602 -2c90 0 157.331 16.167 201.998 48.5s73 82.166 85 149.499h-72c-8 -45.333 -27.333 -78 -58 -98s-78.667 -30 -144 -30h-304c-57.333 0 -98.333 8.16699 -123 24.5s-37 45.5 -37 87.5c0 12.667 0.333008 22.667 1 30s2.66699 19.333 6 36l14 77h600l13 70h-600
l10 55c12.667 70.667 34.334 119 65.001 145s81.667 39 153 39h304c56.667 0 98 -8.66699 124 -26c23.333 -15.333 35 -39 35 -71c0 -9.33301 -1 -19.666 -3 -30.999h72c2.66699 15.333 4 31 4 47c0 100.667 -73.667 151 -221 151h-304c-92.667 0 -161.667 -19.333 -207 -58
s-76.666 -104 -93.999 -196l-37 -202c-2.66699 -15.333 -4.66699 -29.5 -6 -42.5s-2 -26.167 -2 -39.5c0 -60 17 -102.667 51 -128s90.333 -38 169 -38h304z" />
    <glyph glyph-name="guillemotleft" unicode="&#xab;" horiz-adv-x="554" 
d="M168 278l140 -168l-40 -34l-166 202l243 206l26 -34zM348 278l140 -168l-40 -34l-166 202l243 206l26 -34z" />
    <glyph glyph-name="logicalnot" unicode="&#xac;" horiz-adv-x="488" 
d="M218 144c-30.667 0 -52.167 -4.33203 -64.5 -12.999s-20.166 -22.334 -23.499 -41.001c-0.666992 -3.33301 -1 -8.33301 -1 -15c0 -14.667 4.83301 -25.5 14.5 -32.5s27.834 -10.5 54.501 -10.5l55 -2l59 2c31.333 0 53.666 4.83301 66.999 14.5
s21.666 24.167 24.999 43.5c1.33301 8 2 13.667 2 17c0 13.333 -5.33301 22.833 -16 28.5s-30 8.5 -58 8.5h-114zM243 286.001c-31.333 0 -53.667 -4.99902 -67 -14.999c-10 -7.33301 -17 -21 -21 -41c-0.666992 -2.66699 -1 -5.33398 -1 -8.00098v-6
c0 -12.667 5.33301 -22.167 16 -28.5s28.667 -9.5 54 -9.5l56 -2l58 2c31.333 0 53.5 4 66.5 12s21.167 21.333 24.5 40c0.666992 3.33301 1 8.33301 1 15c0 14 -5.5 24.333 -16.5 31s-29.833 10 -56.5 10h-114zM364.999 318.002c36 0 61.499 -4.83398 76.499 -14.501
s22.5 -25.5 22.5 -47.5c0 -8.66699 -1 -18 -3 -28c-4.66699 -25.333 -16.667 -43.666 -36 -54.999c-12.667 -7.33301 -24.667 -11 -36 -11c16 -3.33301 27 -8 33 -14c10.667 -10 16 -24 16 -42c0 -2.66699 -0.666992 -8.66699 -2 -18
c-10.667 -58.667 -53.334 -88 -128.001 -88h-116c-65.333 0 -98 22 -98 66c0 4 0.666992 11.333 2 22c4.66699 29.333 18.334 50.666 41.001 63.999c7.33301 4 18.333 8 33 12l-3 -2c-9.33301 0 -18.333 2.66699 -27 8c-14 8.66699 -21 22.334 -21 41.001
c0 3.33301 0.666992 9 2 17c5.33301 32 17.333 55 36 69s49.334 21 92.001 21h116zM361.998 412.001h-34l51 280l-102 -84l-18 22l109 94h50zM122.998 382.001h388l-6 -30h-388z" />
    <glyph glyph-name="minus" unicode="&#xad;" horiz-adv-x="467" 
d="M149 603h388l-7 -39h-388z" />
    <glyph glyph-name="registered" unicode="&#xae;" horiz-adv-x="652" 
d="M367 204c-79.333 0 -140.667 22.666 -184 67.999c-39.333 40.667 -59 93.334 -59 158.001v30c2 9.33301 3.33301 16 4 20c13.333 75.333 49 139.333 107 192c64 58.667 141.333 88 232 88c78 0 138.333 -22.333 181 -67c38.667 -40.667 58 -93 58 -157
c0 -16 -1.66699 -34 -5 -54c-13.333 -75.333 -48.333 -139 -105 -191c-62.667 -58 -139 -87 -229 -87zM462.999 737.999c-83.333 0 -154.667 -26.665 -214 -79.998c-53.333 -48 -86 -106.667 -98 -176c-1.33301 -6.66699 -2.33301 -14.334 -3 -23.001s-1 -17 -1 -25
c0 -58.667 18 -107 54 -145c40 -42 96.667 -63 170 -63c83.333 0 154 26.333 212 79c52.667 48 85 106.333 97 175c2.66699 16.667 4.16699 28.167 4.5 34.5s0.5 11.5 0.5 15.5c0 59.333 -17.667 107.666 -53 144.999c-40 42 -96.333 63 -169 63zM347.998 634.001
l128 -0.000976562c12.667 -2.66699 22 -5.66699 28 -9c19.333 -11.333 29 -29.666 29 -54.999c0 -4 -0.666992 -10.667 -2 -20c-4 -24 -15 -43 -33 -57s-36.333 -21 -55 -21h-54l107 -138h-28l-105 138h-20l-25 -138h-24zM346.998 494l104.001 -0.00195312
c11.333 2.66699 19.666 5.33398 24.999 8.00098c18 10 28.667 24.667 32 44l1 4c0.666992 3.33301 1 8.33301 1 15c0 17.333 -6.66699 30.333 -20 39c-4 2.66699 -10.667 5.33398 -20 8.00098h-102z" />
    <glyph glyph-name="macron" unicode="&#xaf;" horiz-adv-x="282" 
d="M174 0h-72l125 694h72zM173 808h64l-11 -64h-64zM327 808h64l-11 -64h-64z" />
    <glyph glyph-name="macron" unicode="&#x407;" horiz-adv-x="282" 
d="M174 0h-72l125 694h72zM173 808h64l-11 -64h-64zM327 808h64l-11 -64h-64z" />
    <glyph glyph-name="degree" unicode="&#xb0;" horiz-adv-x="282" 
d="M161 608c3.33301 16.667 10.668 29.999 22.001 39.999c14 12 32.333 18 55 18h54c19.333 0 33.5 -4.16699 42.5 -12.5s13.5 -19.166 13.5 -32.499c0 -6 -0.333008 -10.333 -1 -13l-6 -34c-2.66699 -16 -10.5 -29.333 -23.5 -40s-30.5 -16 -52.5 -16h-54
c-18.667 0 -32.834 4.16699 -42.501 12.5s-14.5 19.166 -14.5 32.499c0 4.66699 0.333008 8.33398 1 11.001zM177.002 573.999c-4 -24 8.66699 -36 38 -36h54c29.333 0 46 12 50 36l6 34c2.66699 12.667 0.666992 21.834 -6 27.501s-17 8.5 -31 8.5h-54
c-13.333 0 -24.5 -2.83301 -33.5 -8.5s-14.833 -14.834 -17.5 -27.501z" />
    <glyph glyph-name="plusminus" unicode="&#xb1;" horiz-adv-x="446" 
d="M94 220h318l-13 -72h-318zM118 456h144l26 144h66l-26 -144h146l-12 -68h-146l-26 -144h-66l26 144h-144z" />
    <glyph glyph-name="twosuperior" unicode="&#xb2;" horiz-adv-x="282" 
d="M174 0h-72l125 694h72z" />
    <glyph glyph-name="twosuperior" unicode="&#x406;" horiz-adv-x="282" 
d="M174 0h-72l125 694h72z" />
    <glyph glyph-name="threesuperior" unicode="&#xb3;" horiz-adv-x="228" 
d="M78 0l89 494h72l-89 -494h-72zM203 694h72l-13 -72h-72z" />
    <glyph glyph-name="threesuperior" unicode="&#x456;" horiz-adv-x="228" 
d="M78 0l89 494h72l-89 -494h-72zM203 694h72l-13 -72h-72z" />
    <glyph glyph-name="acute" unicode="&#xb4;" horiz-adv-x="282" 
d="M321 728l-178 -136l23 -24l188 112z" />
    <glyph glyph-name="acute" unicode="&#x491;" horiz-adv-x="282" 
d="M321 728l-178 -136l23 -24l188 112z" />
    <glyph glyph-name="mu" unicode="&#xb5;" horiz-adv-x="488" 
d="M362 412h-34l51 280l-102 -84l-18 22l109 94h50zM458 210c-6.66699 -35.333 -18.667 -60.166 -36 -74.499s-48.333 -21.5 -93 -21.5h-112c-30 0 -52.5 -5 -67.5 -15s-24.167 -23.667 -27.5 -41l-4 -26h308l-6 -32h-340l10 58c11.333 58.667 55.333 88 132 88h112
c30.667 0 52.5 4.66699 65.5 14s21.833 26 26.5 50c2 10 3 18.667 3 26c0 16.667 -5.33301 28.5 -16 35.5s-28.667 10.5 -54 10.5h-112c-29.333 0 -50.5 -4.33301 -63.5 -13s-21.167 -22.334 -24.5 -41.001h-36c10.667 57.333 54 86 130 86h112
c36 0 61.167 -4.83301 75.5 -14.5s21.5 -26.5 21.5 -50.5c0 -12.667 -1.33301 -25.667 -4 -39zM122 378h388l-5 -30h-388z" />
    <glyph glyph-name="paragraph" unicode="&#xb6;" 
d="M502 -56l-78 -0.000976562l64 354h-152c-72.667 0 -126.167 13 -160.5 39s-51.5 62.667 -51.5 110v26c2 8 3.33301 13.667 4 17c12 66.667 41 117.334 87 152.001s110.667 52 194 52h228zM644 -56.001h-72l135 750h72z" />
    <glyph glyph-name="periodcentered" unicode="&#xb7;" horiz-adv-x="196" 
d="M114 302l14 78h78l-14 -78h-78z" />
    <glyph glyph-name="periodcentered" unicode="&#x2219;" horiz-adv-x="196" 
d="M114 302l14 78h78l-14 -78h-78z" />
    <glyph glyph-name="cedilla" unicode="&#xb8;" horiz-adv-x="728" 
d="M664 312c1.33301 6 2 14.333 2 25c0 29.333 -9.83301 52.833 -29.5 70.5s-47.834 26.5 -84.501 26.5h-226c-37.333 0 -69.666 -11.333 -96.999 -34s-44.333 -52 -51 -88h486zM504 -2l-242.001 -0.00195312c-122.667 0 -184 46.333 -184 139
c0 12.667 1.66699 28.334 5 47.001l24 130c8.66699 48.667 34 90.334 76 125.001c46 38 101.333 57 166 57h208c60 0 106.333 -14 139 -42c30 -25.333 45 -59 45 -101c0 -10.667 -1 -21 -3 -31l-13 -72h-558l-10 -56c-1.33301 -6.66699 -2.33301 -13 -3 -19
s-1 -12.333 -1 -19c0 -34 11 -59 33 -75c19.333 -14 47.666 -21 84.999 -21h234c38 0 68 8.33301 90 25s35.333 37.667 40 63l1 10h72l-1 -10c-7.33301 -38 -25.666 -70.667 -54.999 -98c-37.333 -34.667 -86.666 -52 -147.999 -52zM362.999 693.998h72l-13 -72h-72z
M540.999 693.998h72l-13 -72h-72z" />
    <glyph glyph-name="cedilla" unicode="&#x451;" horiz-adv-x="728" 
d="M664 312c1.33301 6 2 14.333 2 25c0 29.333 -9.83301 52.833 -29.5 70.5s-47.834 26.5 -84.501 26.5h-226c-37.333 0 -69.666 -11.333 -96.999 -34s-44.333 -52 -51 -88h486zM504 -2l-242.001 -0.00195312c-122.667 0 -184 46.333 -184 139
c0 12.667 1.66699 28.334 5 47.001l24 130c8.66699 48.667 34 90.334 76 125.001c46 38 101.333 57 166 57h208c60 0 106.333 -14 139 -42c30 -25.333 45 -59 45 -101c0 -10.667 -1 -21 -3 -31l-13 -72h-558l-10 -56c-1.33301 -6.66699 -2.33301 -13 -3 -19
s-1 -12.333 -1 -19c0 -34 11 -59 33 -75c19.333 -14 47.666 -21 84.999 -21h234c38 0 68 8.33301 90 25s35.333 37.667 40 63l1 10h72l-1 -10c-7.33301 -38 -25.666 -70.667 -54.999 -98c-37.333 -34.667 -86.666 -52 -147.999 -52zM362.999 693.998h72l-13 -72h-72z
M540.999 693.998h72l-13 -72h-72z" />
    <glyph glyph-name="onesuperior" unicode="&#xb9;" horiz-adv-x="1261" 
d="M58 0l125 694h160l422 -622l112 622h72l-125 -694h-104l-435 640h-40l-115 -640h-72zM944 345h312l-7 -40h-312zM972 521c6.66699 30.667 19.001 54 37.001 70c21.333 18.667 50.666 28 87.999 28h100c32.667 0 56.167 -7 70.5 -21s21.5 -32.667 21.5 -56
c0 -9.33301 -0.333008 -16.333 -1 -21l-10 -54c-6 -28.667 -18.333 -51.334 -37 -68.001c-22 -20 -51.667 -30 -89 -30h-100c-30.667 0 -53.667 6.33301 -69 19s-23 31.334 -23 56.001v11c1.33301 5.33301 2 9.33301 2 12zM998.001 467
c-1.33301 -8 -2.00098 -13.667 -2.00098 -17c0 -32.667 22 -49 66 -49h92c24 0 43.5 5.16699 58.5 15.5s24.833 27.166 29.5 50.499l10 54c1.33301 8 2 13.333 2 16c0 33.333 -22 50 -66 50h-92c-25.333 0 -45.166 -5.16699 -59.499 -15.5s-23.833 -27.166 -28.5 -50.499z
" />
    <glyph glyph-name="onesuperior" unicode="&#x2116;" horiz-adv-x="1261" 
d="M58 0l125 694h160l422 -622l112 622h72l-125 -694h-104l-435 640h-40l-115 -640h-72zM944 345h312l-7 -40h-312zM972 521c6.66699 30.667 19.001 54 37.001 70c21.333 18.667 50.666 28 87.999 28h100c32.667 0 56.167 -7 70.5 -21s21.5 -32.667 21.5 -56
c0 -9.33301 -0.333008 -16.333 -1 -21l-10 -54c-6 -28.667 -18.333 -51.334 -37 -68.001c-22 -20 -51.667 -30 -89 -30h-100c-30.667 0 -53.667 6.33301 -69 19s-23 31.334 -23 56.001v11c1.33301 5.33301 2 9.33301 2 12zM998.001 467
c-1.33301 -8 -2.00098 -13.667 -2.00098 -17c0 -32.667 22 -49 66 -49h92c24 0 43.5 5.16699 58.5 15.5s24.833 27.166 29.5 50.499l10 54c1.33301 8 2 13.333 2 16c0 33.333 -22 50 -66 50h-92c-25.333 0 -45.166 -5.16699 -59.499 -15.5s-23.833 -27.166 -28.5 -50.499z
" />
    <glyph glyph-name="ordmasculine" unicode="&#xba;" 
d="M473 58h-220.002c-31.333 0 -57.333 8.66699 -78 26s-31 41.333 -31 72c0 8 1 16.667 3 26l8 48h422l11 60h-422l3 16c8 43.333 25.5 75.833 52.5 97.5s61.833 32.5 104.5 32.5h216c46 0 78.667 -11 98 -33c13.333 -15.333 20 -34.666 20 -57.999
c0 -8.66699 -0.333008 -14.334 -1 -17.001l-1 -6h72l1 8c1.33301 8 2 16.333 2 25c0 35.333 -10 64.666 -30 87.999c-29.333 34 -78.666 51 -147.999 51l-2 2h-216c-66.667 0 -121.667 -18.333 -165 -55c-40 -34 -65 -79 -75 -135l-22 -124
c-1.33301 -6.66699 -2.33301 -14.167 -3 -22.5s-1 -16.166 -1 -23.499c0 -44 14 -78 42 -102s71 -36 129 -36h222c65.333 0 118.833 15 160.5 45s67.5 71 77.5 123l1 8h-72l-1 -10c-4.66699 -24 -15.667 -44.667 -33 -62c-29.333 -29.333 -70.666 -44 -123.999 -44z" />
    <glyph glyph-name="ordmasculine" unicode="&#x454;" 
d="M473 58h-220.002c-31.333 0 -57.333 8.66699 -78 26s-31 41.333 -31 72c0 8 1 16.667 3 26l8 48h422l11 60h-422l3 16c8 43.333 25.5 75.833 52.5 97.5s61.833 32.5 104.5 32.5h216c46 0 78.667 -11 98 -33c13.333 -15.333 20 -34.666 20 -57.999
c0 -8.66699 -0.333008 -14.334 -1 -17.001l-1 -6h72l1 8c1.33301 8 2 16.333 2 25c0 35.333 -10 64.666 -30 87.999c-29.333 34 -78.666 51 -147.999 51l-2 2h-216c-66.667 0 -121.667 -18.333 -165 -55c-40 -34 -65 -79 -75 -135l-22 -124
c-1.33301 -6.66699 -2.33301 -14.167 -3 -22.5s-1 -16.166 -1 -23.499c0 -44 14 -78 42 -102s71 -36 129 -36h222c65.333 0 118.833 15 160.5 45s67.5 71 77.5 123l1 8h-72l-1 -10c-4.66699 -24 -15.667 -44.667 -33 -62c-29.333 -29.333 -70.666 -44 -123.999 -44z" />
    <glyph glyph-name="guillemotright" unicode="&#xbb;" horiz-adv-x="554" 
d="M302 278l-141 174l38 32l169 -206l-236 -200l-28 32zM488 278l-143 174l40 32l169 -206l-238 -200l-26 32z" />
    <glyph glyph-name="onequarter" unicode="&#xbc;" horiz-adv-x="446" 
d="M113 328h328l-13 -72h-328zM198 88l14 78h78l-14 -78h-78zM257 416l14 78h78l-14 -78h-78z" />
    <glyph glyph-name="onequarter" unicode="&#x458;" horiz-adv-x="446" 
d="M113 328h328l-13 -72h-328zM198 88l14 78h78l-14 -78h-78zM257 416l14 78h78l-14 -78h-78z" />
    <glyph glyph-name="onehalf" unicode="&#xbd;" horiz-adv-x="468" 
d="M210 442l83 -102l121 102l37 -47l-119 -102l84 -103l-55 -46l-85 103l-121 -103l-39 46l122 103l-83 102z" />
    <glyph glyph-name="onehalf" unicode="&#x405;" horiz-adv-x="468" 
d="M210 442l83 -102l121 102l37 -47l-119 -102l84 -103l-55 -46l-85 103l-121 -103l-39 46l122 103l-83 102z" />
    <glyph glyph-name="threequarters" unicode="&#xbe;" horiz-adv-x="466" 
d="M60 0l14 78h78l-14 -78h-78zM334 0l14 78h78l-14 -78h-78zM197 0l14 78h78l-14 -78h-78z" />
    <glyph glyph-name="threequarters" unicode="&#x455;" horiz-adv-x="466" 
d="M60 0l14 78h78l-14 -78h-78zM334 0l14 78h78l-14 -78h-78zM197 0l14 78h78l-14 -78h-78z" />
    <glyph glyph-name="questiondown" unicode="&#xbf;" horiz-adv-x="221" 
d="M111 694h72l-13 -72h-72zM289 694h72l-13 -72h-72zM78 0l89 494h72l-89 -494h-72z" />
    <glyph glyph-name="questiondown" unicode="&#x457;" horiz-adv-x="221" 
d="M111 694h72l-13 -72h-72zM289 694h72l-13 -72h-72zM78 0l89 494h72l-89 -494h-72z" />
    <glyph glyph-name="Agrave" unicode="&#xc0;" horiz-adv-x="846" 
d="M88 0h-80l485 694h110l235 -694h-84l-58 174h-488zM260 244h412l-134 400z" />
    <glyph glyph-name="Agrave" unicode="&#x410;" horiz-adv-x="846" 
d="M88 0h-80l485 694h110l235 -694h-84l-58 174h-488zM260 244h412l-134 400z" />
    <glyph glyph-name="Aacute" unicode="&#xc1;" horiz-adv-x="814" 
d="M187 694l-125 -694.001h495c80.667 0 139.667 15.5 177 46.5s62.666 82.833 75.999 155.5c2 12.667 3.66699 24.334 5 35.001s2 20.667 2 30c0 51.333 -16.667 87.5 -50 108.5s-87.666 31.5 -162.999 31.5h-397l39 217h581l13 70h-653zM195 336.999h418
c46.667 0 80 -6.5 100 -19.5s30 -36.167 30 -69.5c0 -12 -1.66699 -28 -5 -48c-9.33301 -52 -25.833 -86.667 -49.5 -104s-62.5 -26 -116.5 -26h-425z" />
    <glyph glyph-name="Aacute" unicode="&#x411;" horiz-adv-x="814" 
d="M187 694l-125 -694.001h495c80.667 0 139.667 15.5 177 46.5s62.666 82.833 75.999 155.5c2 12.667 3.66699 24.334 5 35.001s2 20.667 2 30c0 51.333 -16.667 87.5 -50 108.5s-87.666 31.5 -162.999 31.5h-397l39 217h581l13 70h-653zM195 336.999h418
c46.667 0 80 -6.5 100 -19.5s30 -36.167 30 -69.5c0 -12 -1.66699 -28 -5 -48c-9.33301 -52 -25.833 -86.667 -49.5 -104s-62.5 -26 -116.5 -26h-425z" />
    <glyph glyph-name="Acircumflex" unicode="&#xc2;" horiz-adv-x="890" 
d="M246 624l-39.999 -226.001h472c49.333 0 85.666 7.33301 108.999 22c26.667 16.667 43.667 46 51 88c2 12 3 22.667 3 32c0 28.667 -9.5 49.834 -28.5 63.501s-50.5 20.5 -94.5 20.5h-472zM62.001 -0.000976562l124.998 694h516c142.667 0 214 -45.667 214 -137
c0 -14.667 -1.33301 -28.334 -4 -41.001c-8.66699 -46.667 -25.667 -83.667 -51 -111c-18 -19.333 -39 -32.333 -63 -39c17.333 -3.33301 33.333 -12.666 48 -27.999c22.667 -23.333 34 -54.333 34 -93v-24c-2 -8 -3.33301 -13.667 -4 -17
c-13.333 -74.667 -43.666 -128 -90.999 -160c-43.333 -29.333 -106.666 -44 -189.999 -44h-534zM192.999 327.999l-46.001 -258h490c48 0 85.833 10.667 113.5 32s45.834 55.333 54.501 102c2 12 3 22.667 3 32c0 32.667 -11 56.167 -33 70.5s-54.667 21.5 -98 21.5h-484z
" />
    <glyph glyph-name="Acircumflex" unicode="&#x412;" horiz-adv-x="890" 
d="M246 624l-39.999 -226.001h472c49.333 0 85.666 7.33301 108.999 22c26.667 16.667 43.667 46 51 88c2 12 3 22.667 3 32c0 28.667 -9.5 49.834 -28.5 63.501s-50.5 20.5 -94.5 20.5h-472zM62.001 -0.000976562l124.998 694h516c142.667 0 214 -45.667 214 -137
c0 -14.667 -1.33301 -28.334 -4 -41.001c-8.66699 -46.667 -25.667 -83.667 -51 -111c-18 -19.333 -39 -32.333 -63 -39c17.333 -3.33301 33.333 -12.666 48 -27.999c22.667 -23.333 34 -54.333 34 -93v-24c-2 -8 -3.33301 -13.667 -4 -17
c-13.333 -74.667 -43.666 -128 -90.999 -160c-43.333 -29.333 -106.666 -44 -189.999 -44h-534zM192.999 327.999l-46.001 -258h490c48 0 85.833 10.667 113.5 32s45.834 55.333 54.501 102c2 12 3 22.667 3 32c0 32.667 -11 56.167 -33 70.5s-54.667 21.5 -98 21.5h-484z
" />
    <glyph glyph-name="Atilde" unicode="&#xc3;" 
d="M193 694l-125 -694h72l112 624h523l13 70h-595z" />
    <glyph glyph-name="Atilde" unicode="&#x413;" 
d="M193 694l-125 -694h72l112 624h523l13 70h-595z" />
    <glyph glyph-name="Adieresis" unicode="&#xc4;" horiz-adv-x="951" 
d="M798 70l99 553h-541l-64 -356c-8 -43.333 -20.333 -81.333 -37 -114c-19.333 -37.333 -44 -65 -74 -83h617zM982 693l-112 -623h58l-47 -258h-69l34 188h-733l-34 -188h-68l47 258h37c34 22 60.833 46.5 80.5 73.5s33.5 61.833 41.5 104.5l80 445h685z" />
    <glyph glyph-name="Adieresis" unicode="&#x414;" horiz-adv-x="951" 
d="M798 70l99 553h-541l-64 -356c-8 -43.333 -20.333 -81.333 -37 -114c-19.333 -37.333 -44 -65 -74 -83h617zM982 693l-112 -623h58l-47 -258h-69l34 188h-733l-34 -188h-68l47 258h37c34 22 60.833 46.5 80.5 73.5s33.5 61.833 41.5 104.5l80 445h685z" />
    <glyph glyph-name="Aring" unicode="&#xc5;" horiz-adv-x="738" 
d="M60 0l125 694h613l-13 -70h-541l-41 -230h529l-13 -70h-529l-45 -254h543l-13 -70h-615z" />
    <glyph glyph-name="Aring" unicode="&#x415;" horiz-adv-x="738" 
d="M60 0l125 694h613l-13 -70h-541l-41 -230h529l-13 -70h-529l-45 -254h543l-13 -70h-615z" />
    <glyph glyph-name="AE" unicode="&#xc6;" horiz-adv-x="1408" 
d="M665 0h72l61 338h128l342 -338h113l-390 375l506 320h-116l-455 -287h-116l52 286h-72l-52 -286h-116l-351 287h-116l390 -320l-524 -375h113l465 338h127z" />
    <glyph glyph-name="AE" unicode="&#x416;" horiz-adv-x="1408" 
d="M665 0h72l61 338h128l342 -338h113l-390 375l506 320h-116l-455 -287h-116l52 286h-72l-52 -286h-116l-351 287h-116l390 -320l-524 -375h113l465 338h127z" />
    <glyph glyph-name="Ccedilla" unicode="&#xc7;" horiz-adv-x="912" 
d="M77 196l71.998 -0.00292969c-2 -12 -3 -23.333 -3 -34c0 -32.667 12.333 -56.5 37 -71.5s65.334 -22.5 122.001 -22.5h304c70 0 120 9.5 150 28.5s50 55.5 60 109.5c2 12 3 23.333 3 34c0 26 -7 45.667 -21 59c-16.667 16 -42.667 24 -78 24h-429l13 70h409
c46.667 0 80 7.16699 100 21.5s33.333 41.833 40 82.5c3.33301 18 5 32.667 5 44c0 33.333 -11.833 56.833 -35.5 70.5s-65.167 20.5 -124.5 20.5h-294c-66 0 -115 -11.333 -147 -34c-29.333 -20.667 -47.666 -52 -54.999 -94h-72c23.333 132 119 198 287 198h294
c74.667 0 130.667 -14 168 -42c34.667 -26 52 -62.667 52 -110v-26c-2 -8 -3.33301 -13.667 -4 -17c-8 -46 -22.667 -81 -44 -105c-16.667 -19.333 -38.334 -32.666 -65.001 -39.999c24.667 -9.33301 43.167 -22.666 55.5 -39.999s18.5 -40.666 18.5 -69.999
c0 -10 -0.833008 -21.167 -2.5 -33.5s-3.16699 -21.833 -4.5 -28.5c-12 -67.333 -40.333 -116.166 -85 -146.499s-113 -45.5 -205 -45.5h-304c-77.333 0 -133.666 12.167 -168.999 36.5s-53 61.166 -53 110.499c0 14 1.66699 31 5 51z" />
    <glyph glyph-name="Ccedilla" unicode="&#x417;" horiz-adv-x="912" 
d="M77 196l71.998 -0.00292969c-2 -12 -3 -23.333 -3 -34c0 -32.667 12.333 -56.5 37 -71.5s65.334 -22.5 122.001 -22.5h304c70 0 120 9.5 150 28.5s50 55.5 60 109.5c2 12 3 23.333 3 34c0 26 -7 45.667 -21 59c-16.667 16 -42.667 24 -78 24h-429l13 70h409
c46.667 0 80 7.16699 100 21.5s33.333 41.833 40 82.5c3.33301 18 5 32.667 5 44c0 33.333 -11.833 56.833 -35.5 70.5s-65.167 20.5 -124.5 20.5h-294c-66 0 -115 -11.333 -147 -34c-29.333 -20.667 -47.666 -52 -54.999 -94h-72c23.333 132 119 198 287 198h294
c74.667 0 130.667 -14 168 -42c34.667 -26 52 -62.667 52 -110v-26c-2 -8 -3.33301 -13.667 -4 -17c-8 -46 -22.667 -81 -44 -105c-16.667 -19.333 -38.334 -32.666 -65.001 -39.999c24.667 -9.33301 43.167 -22.666 55.5 -39.999s18.5 -40.666 18.5 -69.999
c0 -10 -0.833008 -21.167 -2.5 -33.5s-3.16699 -21.833 -4.5 -28.5c-12 -67.333 -40.333 -116.166 -85 -146.499s-113 -45.5 -205 -45.5h-304c-77.333 0 -133.666 12.167 -168.999 36.5s-53 61.166 -53 110.499c0 14 1.66699 31 5 51z" />
    <glyph glyph-name="Egrave" unicode="&#xc8;" horiz-adv-x="880" 
d="M824 0l125 694h-139l-664 -640h-6l115 640h-72l-125 -694h117l665 640h27l-115 -640h72z" />
    <glyph glyph-name="Egrave" unicode="&#x418;" horiz-adv-x="880" 
d="M824 0l125 694h-139l-664 -640h-6l115 640h-72l-125 -694h117l665 640h27l-115 -640h72z" />
    <glyph glyph-name="Eacute" unicode="&#xc9;" horiz-adv-x="880" 
d="M824 0l125 694h-139l-664 -640h-6l115 640h-72l-125 -694h117l665 640h27l-115 -640h72zM586 719c65.333 0 118.333 14.334 159 43.001c43.333 30.667 69.666 71.667 78.999 123h-72c-5.33301 -32.667 -23 -59 -53 -79c-27.333 -18 -61.666 -27 -102.999 -27h-79
c-46.667 0 -79.667 10.667 -99 32c-13.333 14.667 -20 34 -20 58c0 8 0.333008 13.333 1 16h-72c-1.33301 -8 -2 -15.333 -2 -22c0 -36.667 10.667 -67.334 32 -92.001c30.667 -34.667 80 -52 148 -52h81z" />
    <glyph glyph-name="Eacute" unicode="&#x419;" horiz-adv-x="880" 
d="M824 0l125 694h-139l-664 -640h-6l115 640h-72l-125 -694h117l665 640h27l-115 -640h72zM586 719c65.333 0 118.333 14.334 159 43.001c43.333 30.667 69.666 71.667 78.999 123h-72c-5.33301 -32.667 -23 -59 -53 -79c-27.333 -18 -61.666 -27 -102.999 -27h-79
c-46.667 0 -79.667 10.667 -99 32c-13.333 14.667 -20 34 -20 58c0 8 0.333008 13.333 1 16h-72c-1.33301 -8 -2 -15.333 -2 -22c0 -36.667 10.667 -67.334 32 -92.001c30.667 -34.667 80 -52 148 -52h81z" />
    <glyph glyph-name="Ecircumflex" unicode="&#xca;" horiz-adv-x="846" 
d="M50 0l125 694h72l-52 -286h116l524 286h122l-575 -316l446 -378h-124l-402 338h-119l-61 -338h-72z" />
    <glyph glyph-name="Ecircumflex" unicode="&#x41a;" horiz-adv-x="846" 
d="M50 0l125 694h72l-52 -286h116l524 286h122l-575 -316l446 -378h-124l-402 338h-119l-61 -338h-72z" />
    <glyph glyph-name="Edieresis" unicode="&#xcb;" horiz-adv-x="897" 
d="M885 622l-566 0.000976562l-82 -458c-11.333 -58.667 -33.333 -101.334 -66 -128.001c-30 -24 -70.667 -36 -122 -36h-29l13 70h38c20.667 0 38.667 6 54 18c20 16 33.333 41.333 40 76l95 530h710l-125 -694h-72z" />
    <glyph glyph-name="Edieresis" unicode="&#x41b;" horiz-adv-x="897" 
d="M885 622l-566 0.000976562l-82 -458c-11.333 -58.667 -33.333 -101.334 -66 -128.001c-30 -24 -70.667 -36 -122 -36h-29l13 70h38c20.667 0 38.667 6 54 18c20 16 33.333 41.333 40 76l95 530h710l-125 -694h-72z" />
    <glyph glyph-name="Igrave" unicode="&#xcc;" horiz-adv-x="1128" 
d="M1193 694h-154l-457 -592l-245 592h-154l-125 -694h72l115 638h41l259 -638h37l489 638h40l-115 -638h72z" />
    <glyph glyph-name="Igrave" unicode="&#x41c;" horiz-adv-x="1128" 
d="M1193 694h-154l-457 -592l-245 592h-154l-125 -694h72l115 638h41l259 -638h37l489 638h40l-115 -638h72z" />
    <glyph glyph-name="Iacute" unicode="&#xcd;" horiz-adv-x="880" 
d="M68 0l125 694h72l-54 -300h616l54 300h72l-125 -694h-72l58 322h-616l-58 -322h-72z" />
    <glyph glyph-name="Iacute" unicode="&#x41d;" horiz-adv-x="880" 
d="M68 0l125 694h72l-54 -300h616l54 300h72l-125 -694h-72l58 322h-616l-58 -322h-72z" />
    <glyph glyph-name="Icircumflex" unicode="&#xce;" horiz-adv-x="912" 
d="M875 460c2 14 3.66699 26.332 5 36.999s2 21 2 31c0 40.667 -11.333 68.167 -34 82.5s-63 21.5 -121 21.5h-304c-66.667 0 -115.834 -12.167 -147.501 -36.5s-54.5 -69.5 -68.5 -135.5l-40 -222c-4 -22 -6 -41.667 -6 -59c0 -41.333 12.333 -69.833 37 -85.5
s66 -23.5 124 -23.5h304c72.667 0 122.334 10.833 149.001 32.5s46.667 66.834 60 135.501zM907 237.999c-18.667 -96.667 -49.002 -161 -91.002 -193c-39.333 -30 -106.666 -45 -201.999 -45h-304c-79.333 0 -136.333 12 -171 36s-52 65 -52 123c0 22 2.66699 48.333 8 79
l39 216c16.667 90.667 46.334 154 89.001 190c45.333 38.667 116.333 58 213 58h304c74.667 0 128 -10.667 160 -32c36 -24 54 -67.333 54 -130c0 -23.333 -2.66699 -52 -8 -86z" />
    <glyph glyph-name="Icircumflex" unicode="&#x41e;" horiz-adv-x="912" 
d="M875 460c2 14 3.66699 26.332 5 36.999s2 21 2 31c0 40.667 -11.333 68.167 -34 82.5s-63 21.5 -121 21.5h-304c-66.667 0 -115.834 -12.167 -147.501 -36.5s-54.5 -69.5 -68.5 -135.5l-40 -222c-4 -22 -6 -41.667 -6 -59c0 -41.333 12.333 -69.833 37 -85.5
s66 -23.5 124 -23.5h304c72.667 0 122.334 10.833 149.001 32.5s46.667 66.834 60 135.501zM907 237.999c-18.667 -96.667 -49.002 -161 -91.002 -193c-39.333 -30 -106.666 -45 -201.999 -45h-304c-79.333 0 -136.333 12 -171 36s-52 65 -52 123c0 22 2.66699 48.333 8 79
l39 216c16.667 90.667 46.334 154 89.001 190c45.333 38.667 116.333 58 213 58h304c74.667 0 128 -10.667 160 -32c36 -24 54 -67.333 54 -130c0 -23.333 -2.66699 -52 -8 -86z" />
    <glyph glyph-name="Idieresis" unicode="&#xcf;" horiz-adv-x="880" 
d="M68 0l125 694h760l-125 -694h-72l112 622h-616l-112 -622h-72z" />
    <glyph glyph-name="Idieresis" unicode="&#x41f;" horiz-adv-x="880" 
d="M68 0l125 694h760l-125 -694h-72l112 622h-616l-112 -622h-72z" />
    <glyph glyph-name="Eth" unicode="&#xd0;" horiz-adv-x="814" 
d="M62 1l125 693h468c74 0 127.833 -11.5 161.5 -34.5s50.5 -61.167 50.5 -114.5c0 -7.33301 -0.5 -15.5 -1.5 -24.5s-2.83301 -22.5 -5.5 -40.5c-13.333 -75.333 -40.5 -126.333 -81.5 -153s-106.167 -40 -195.5 -40h-397l-52 -286h-72zM198 357l418 0.000976562
c58.667 0 99 7.33301 121 22c25.333 16.667 42.333 50.334 51 101.001c2 8 3.33301 16.167 4 24.5s1 17.166 1 26.499c0 33.333 -9.5 57.166 -28.5 71.499s-50.167 21.5 -93.5 21.5h-425z" />
    <glyph glyph-name="Eth" unicode="&#x420;" horiz-adv-x="814" 
d="M62 1l125 693h468c74 0 127.833 -11.5 161.5 -34.5s50.5 -61.167 50.5 -114.5c0 -7.33301 -0.5 -15.5 -1.5 -24.5s-2.83301 -22.5 -5.5 -40.5c-13.333 -75.333 -40.5 -126.333 -81.5 -153s-106.167 -40 -195.5 -40h-397l-52 -286h-72zM198 357l418 0.000976562
c58.667 0 99 7.33301 121 22c25.333 16.667 42.333 50.334 51 101.001c2 8 3.33301 16.167 4 24.5s1 17.166 1 26.499c0 33.333 -9.5 57.166 -28.5 71.499s-50.167 21.5 -93.5 21.5h-425z" />
    <glyph glyph-name="Ntilde" unicode="&#xd1;" horiz-adv-x="912" 
d="M602 -2l-303.999 -0.00195312c-78 0 -134.167 12.833 -168.5 38.5s-51.5 68.5 -51.5 128.5c0 22 2.66699 49 8 81l37 202c17.333 91.333 48.666 156.5 93.999 195.5s114.333 58.5 207 58.5h304c147.333 0 221 -50.667 221 -152v-26c-2 -9.33301 -3.33301 -16 -4 -20h-72
c2 11.333 3 21.666 3 30.999c0 32 -11.333 55.667 -34 71c-25.333 17.333 -67 26 -125 26h-304c-70.667 0 -121.5 -12.833 -152.5 -38.5s-52.833 -74.167 -65.5 -145.5l-37 -202c-4.66699 -23.333 -7 -45.666 -7 -66.999c0 -41.333 12.167 -70.166 36.5 -86.499
s65.5 -24.5 123.5 -24.5h304c64.667 0 112.5 10.167 143.5 30.5s50.5 52.833 58.5 97.5h72c-12 -67.333 -40.333 -117.166 -85 -149.499s-112 -48.5 -202 -48.5z" />
    <glyph glyph-name="Ntilde" unicode="&#x421;" horiz-adv-x="912" 
d="M602 -2l-303.999 -0.00195312c-78 0 -134.167 12.833 -168.5 38.5s-51.5 68.5 -51.5 128.5c0 22 2.66699 49 8 81l37 202c17.333 91.333 48.666 156.5 93.999 195.5s114.333 58.5 207 58.5h304c147.333 0 221 -50.667 221 -152v-26c-2 -9.33301 -3.33301 -16 -4 -20h-72
c2 11.333 3 21.666 3 30.999c0 32 -11.333 55.667 -34 71c-25.333 17.333 -67 26 -125 26h-304c-70.667 0 -121.5 -12.833 -152.5 -38.5s-52.833 -74.167 -65.5 -145.5l-37 -202c-4.66699 -23.333 -7 -45.666 -7 -66.999c0 -41.333 12.167 -70.166 36.5 -86.499
s65.5 -24.5 123.5 -24.5h304c64.667 0 112.5 10.167 143.5 30.5s50.5 52.833 58.5 97.5h72c-12 -67.333 -40.333 -117.166 -85 -149.499s-112 -48.5 -202 -48.5z" />
    <glyph glyph-name="Ograve" unicode="&#xd2;" horiz-adv-x="792" 
d="M147 694h748l-13 -70h-339l-112 -624h-72l112 624h-337z" />
    <glyph glyph-name="Ograve" unicode="&#x422;" horiz-adv-x="792" 
d="M147 694h748l-13 -70h-339l-112 -624h-72l112 624h-337z" />
    <glyph glyph-name="Oacute" unicode="&#xd3;" horiz-adv-x="789" 
d="M816 695h86.002l-387 -495c-66 -84.667 -116.333 -139.167 -151 -163.5s-80.334 -36.5 -137.001 -36.5h-24l13 70h25c37.333 0 64.666 5 81.999 15s39.333 32 66 66l-255 544h83l223 -488z" />
    <glyph glyph-name="Oacute" unicode="&#x423;" horiz-adv-x="789" 
d="M816 695h86.002l-387 -495c-66 -84.667 -116.333 -139.167 -151 -163.5s-80.334 -36.5 -137.001 -36.5h-24l13 70h25c37.333 0 64.666 5 81.999 15s39.333 32 66 66l-255 544h83l223 -488z" />
    <glyph glyph-name="Ocircumflex" unicode="&#xd4;" horiz-adv-x="1114" 
d="M618 570h-209.998c-66.667 0 -115.834 -12.167 -147.501 -36.5s-54.834 -69.833 -69.501 -136.5l-16 -91c-4 -22 -6 -41.667 -6 -59c0 -41.333 12.333 -69.833 37 -85.5s66 -23.5 124 -23.5h210zM690.002 570l-78 -432h211c69.333 0 119.5 11.5 150.5 34.5
s52.5 67.5 64.5 133.5l16 91c4 23.333 6 43.333 6 60c0 42 -12.5 71.333 -37.5 88s-65.5 25 -121.5 25h-211zM641.002 702h72l-11 -62h210c79.333 0 136.166 -13.667 170.499 -41s51.5 -70 51.5 -128c0 -22 -2.66699 -48.333 -8 -79l-16 -86
c-16 -88.667 -46.5 -150.5 -91.5 -185.5s-114.833 -52.5 -209.5 -52.5h-210l-12 -68h-72l12 68h-210c-79.333 0 -136.333 12 -171 36s-52 65 -52 123c0 22 2.66699 48.333 8 79l16 86c16.667 90.667 46.334 154 89.001 190c45.333 38.667 116.333 58 213 58h210z" />
    <glyph glyph-name="Ocircumflex" unicode="&#x424;" horiz-adv-x="1114" 
d="M618 570h-209.998c-66.667 0 -115.834 -12.167 -147.501 -36.5s-54.834 -69.833 -69.501 -136.5l-16 -91c-4 -22 -6 -41.667 -6 -59c0 -41.333 12.333 -69.833 37 -85.5s66 -23.5 124 -23.5h210zM690.002 570l-78 -432h211c69.333 0 119.5 11.5 150.5 34.5
s52.5 67.5 64.5 133.5l16 91c4 23.333 6 43.333 6 60c0 42 -12.5 71.333 -37.5 88s-65.5 25 -121.5 25h-211zM641.002 702h72l-11 -62h210c79.333 0 136.166 -13.667 170.499 -41s51.5 -70 51.5 -128c0 -22 -2.66699 -48.333 -8 -79l-16 -86
c-16 -88.667 -46.5 -150.5 -91.5 -185.5s-114.833 -52.5 -209.5 -52.5h-210l-12 -68h-72l12 68h-210c-79.333 0 -136.333 12 -171 36s-52 65 -52 123c0 22 2.66699 48.333 8 79l16 86c16.667 90.667 46.334 154 89.001 190c45.333 38.667 116.333 58 213 58h210z" />
    <glyph glyph-name="Otilde" unicode="&#xd5;" horiz-adv-x="858" 
d="M831 694l-345 -294l-239 294h-91l262 -326l-434 -368h96l394 334l274 -334h96l-302 368l385 326h-96z" />
    <glyph glyph-name="Otilde" unicode="&#x425;" horiz-adv-x="858" 
d="M831 694l-345 -294l-239 294h-91l262 -326l-434 -368h96l394 334l274 -334h96l-302 368l385 326h-96z" />
    <glyph glyph-name="Odieresis" unicode="&#xd6;" horiz-adv-x="936" 
d="M153 72h616l112 622h72l-112 -622h58l-47 -260h-68l34 188h-750l125 694h72z" />
    <glyph glyph-name="Odieresis" unicode="&#x426;" horiz-adv-x="936" 
d="M153 72h616l112 622h72l-112 -622h58l-47 -260h-68l34 188h-750l125 694h72z" />
    <glyph glyph-name="multiply" unicode="&#xd7;" horiz-adv-x="853" 
d="M854 694l71.999 -0.00195312l-41 -228l-84 -466h-72l61 341c-20 -21.333 -46.333 -37 -79 -47s-68.667 -15 -108 -15h-232c-77.333 0 -133 11.333 -167 34c-37.333 24.667 -56 67 -56 127c0 20.667 2.66699 46.334 8 77.001l32 178h72l-37 -206
c-2.66699 -13.333 -4 -26.666 -4 -39.999c0 -34 12.333 -58.833 37 -74.5s67.334 -23.5 128.001 -23.5h232c60 0 105.333 10 136 30c24 16 44 42.667 60 80z" />
    <glyph glyph-name="multiply" unicode="&#x427;" horiz-adv-x="853" 
d="M854 694l71.999 -0.00195312l-41 -228l-84 -466h-72l61 341c-20 -21.333 -46.333 -37 -79 -47s-68.667 -15 -108 -15h-232c-77.333 0 -133 11.333 -167 34c-37.333 24.667 -56 67 -56 127c0 20.667 2.66699 46.334 8 77.001l32 178h72l-37 -206
c-2.66699 -13.333 -4 -26.666 -4 -39.999c0 -34 12.333 -58.833 37 -74.5s67.334 -23.5 128.001 -23.5h232c60 0 105.333 10 136 30c24 16 44 42.667 60 80z" />
    <glyph glyph-name="Oslash" unicode="&#xd8;" horiz-adv-x="1203" 
d="M201 694h72l-112 -624h417l112 624h72l-112 -624h417l112 624h72l-125 -694h-1050z" />
    <glyph glyph-name="Oslash" unicode="&#x428;" horiz-adv-x="1203" 
d="M201 694h72l-112 -624h417l112 624h72l-112 -624h417l112 624h72l-125 -694h-1050z" />
    <glyph glyph-name="Ugrave" unicode="&#xd9;" horiz-adv-x="1203" 
d="M201 694h72l-112 -624h417l112 624h72l-112 -624h417l112 624h72l-112 -624h59l-47 -260h-69l34 190h-1040z" />
    <glyph glyph-name="Ugrave" unicode="&#x429;" horiz-adv-x="1203" 
d="M201 694h72l-112 -624h417l112 624h72l-112 -624h417l112 624h72l-112 -624h59l-47 -260h-69l34 190h-1040z" />
    <glyph glyph-name="Uacute" unicode="&#xda;" horiz-adv-x="924" 
d="M297 694l-156 -0.000976562l-13 -70h156l-112 -624h495c80.667 0 139.667 15.5 177 46.5s62.666 82.833 75.999 155.5c2 12.667 3.66699 24.334 5 35.001s2 20.667 2 30c0 51.333 -16.667 87.5 -50 108.5s-87.666 31.5 -162.999 31.5h-397l52 287h-72zM305 336.999h418
c46.667 0 80 -6.5 100 -19.5s30 -36.167 30 -69.5c0 -12 -1.66699 -28 -5 -48c-9.33301 -52 -25.833 -86.667 -49.5 -104s-62.5 -26 -116.5 -26h-425z" />
    <glyph glyph-name="Uacute" unicode="&#x42a;" horiz-adv-x="924" 
d="M297 694l-156 -0.000976562l-13 -70h156l-112 -624h495c80.667 0 139.667 15.5 177 46.5s62.666 82.833 75.999 155.5c2 12.667 3.66699 24.334 5 35.001s2 20.667 2 30c0 51.333 -16.667 87.5 -50 108.5s-87.666 31.5 -162.999 31.5h-397l52 287h-72zM305 336.999h418
c46.667 0 80 -6.5 100 -19.5s30 -36.167 30 -69.5c0 -12 -1.66699 -28 -5 -48c-9.33301 -52 -25.833 -86.667 -49.5 -104s-62.5 -26 -116.5 -26h-425z" />
    <glyph glyph-name="Ucircumflex" unicode="&#xdb;" horiz-adv-x="1028" 
d="M187 694l-125 -694.001h495c80.667 0 139.667 15.5 177 46.5s62.666 82.833 75.999 155.5c2 12.667 3.66699 24.334 5 35.001s2 20.667 2 30c0 51.333 -16.667 87.5 -50 108.5s-87.666 31.5 -162.999 31.5h-397l52 287h-72zM195 336.999h418c46.667 0 80 -6.5 100 -19.5
s30 -36.167 30 -69.5c0 -12 -1.66699 -28 -5 -48c-9.33301 -52 -25.833 -86.667 -49.5 -104s-62.5 -26 -116.5 -26h-425zM965 -0.000976562h-72l125 694h72z" />
    <glyph glyph-name="Ucircumflex" unicode="&#x42b;" horiz-adv-x="1028" 
d="M187 694l-125 -694.001h495c80.667 0 139.667 15.5 177 46.5s62.666 82.833 75.999 155.5c2 12.667 3.66699 24.334 5 35.001s2 20.667 2 30c0 51.333 -16.667 87.5 -50 108.5s-87.666 31.5 -162.999 31.5h-397l52 287h-72zM195 336.999h418c46.667 0 80 -6.5 100 -19.5
s30 -36.167 30 -69.5c0 -12 -1.66699 -28 -5 -48c-9.33301 -52 -25.833 -86.667 -49.5 -104s-62.5 -26 -116.5 -26h-425zM965 -0.000976562h-72l125 694h72z" />
    <glyph glyph-name="Udieresis" unicode="&#xdc;" horiz-adv-x="814" 
d="M187 694l-125 -694.001h495c80.667 0 139.667 15.5 177 46.5s62.666 82.833 75.999 155.5c2 12.667 3.66699 24.334 5 35.001s2 20.667 2 30c0 51.333 -16.667 87.5 -50 108.5s-87.666 31.5 -162.999 31.5h-397l52 287h-72zM195 336.999h418c46.667 0 80 -6.5 100 -19.5
s30 -36.167 30 -69.5c0 -12 -1.66699 -28 -5 -48c-9.33301 -52 -25.833 -86.667 -49.5 -104s-62.5 -26 -116.5 -26h-425z" />
    <glyph glyph-name="Udieresis" unicode="&#x42c;" horiz-adv-x="814" 
d="M187 694l-125 -694.001h495c80.667 0 139.667 15.5 177 46.5s62.666 82.833 75.999 155.5c2 12.667 3.66699 24.334 5 35.001s2 20.667 2 30c0 51.333 -16.667 87.5 -50 108.5s-87.666 31.5 -162.999 31.5h-397l52 287h-72zM195 336.999h418c46.667 0 80 -6.5 100 -19.5
s30 -36.167 30 -69.5c0 -12 -1.66699 -28 -5 -48c-9.33301 -52 -25.833 -86.667 -49.5 -104s-62.5 -26 -116.5 -26h-425z" />
    <glyph glyph-name="Yacute" unicode="&#xdd;" horiz-adv-x="912" 
d="M294 -2c-77.333 0 -133.667 12.1689 -169 36.502s-53 61.166 -53 110.499c0 14 1.66699 31 5 51h72c-2 -12 -3 -23.333 -3 -34c0 -32.667 12.333 -56.5 37 -71.5s65.334 -22.5 122.001 -22.5h304c70 0 120.5 12.5 151.5 37.5s52.833 71.833 65.5 140.5l14 77h-600l13 70
h600l10 55c4.66699 25.333 7 49 7 71c0 42.667 -11.833 72.167 -35.5 88.5s-64.834 24.5 -123.501 24.5h-304c-66 0 -115 -11.333 -147 -34c-29.333 -20.667 -47.666 -52 -54.999 -94h-72c23.333 132 119 198 287 198h304c77.333 0 133.166 -13.333 167.499 -40
s51.5 -70.334 51.5 -131.001c0 -22 -2.66699 -49.667 -8 -83l-37 -202c-16.667 -90.667 -47.667 -154.667 -93 -192s-114.333 -56 -207 -56h-304z" />
    <glyph glyph-name="Yacute" unicode="&#x42d;" horiz-adv-x="912" 
d="M294 -2c-77.333 0 -133.667 12.1689 -169 36.502s-53 61.166 -53 110.499c0 14 1.66699 31 5 51h72c-2 -12 -3 -23.333 -3 -34c0 -32.667 12.333 -56.5 37 -71.5s65.334 -22.5 122.001 -22.5h304c70 0 120.5 12.5 151.5 37.5s52.833 71.833 65.5 140.5l14 77h-600l13 70
h600l10 55c4.66699 25.333 7 49 7 71c0 42.667 -11.833 72.167 -35.5 88.5s-64.834 24.5 -123.501 24.5h-304c-66 0 -115 -11.333 -147 -34c-29.333 -20.667 -47.666 -52 -54.999 -94h-72c23.333 132 119 198 287 198h304c77.333 0 133.166 -13.333 167.499 -40
s51.5 -70.334 51.5 -131.001c0 -22 -2.66699 -49.667 -8 -83l-37 -202c-16.667 -90.667 -47.667 -154.667 -93 -192s-114.333 -56 -207 -56h-304z" />
    <glyph glyph-name="Thorn" unicode="&#xde;" horiz-adv-x="1189" 
d="M1152 460c2 14 3.66699 26.332 5 36.999s2 21 2 31c0 40.667 -11.333 68.167 -34 82.5s-63 21.5 -121 21.5h-304c-66.667 0 -115.834 -12.167 -147.501 -36.5s-54.5 -69.5 -68.5 -135.5l-40 -222c-4 -22 -6 -41.667 -6 -59c0 -41.333 12.333 -69.833 37 -85.5
s66 -23.5 124 -23.5h304c72.667 0 122.334 10.833 149.001 32.5s46.667 66.834 60 135.501zM1184 237.999c-18.667 -96.667 -49.002 -161 -91.002 -193c-39.333 -30 -106.666 -45 -201.999 -45h-304c-79.333 0 -136.333 12 -171 36s-52 65 -52 123c0 22 2.66699 48.333 8 79
l15 84h-196l-58 -322h-72l125 694h72l-54 -302h196l11 62c16.667 90.667 46.334 154 89.001 190c45.333 38.667 116.333 58 213 58h304c74.667 0 128 -10.667 160 -32c36 -24 54 -67.333 54 -130c0 -23.333 -2.66699 -52 -8 -86z" />
    <glyph glyph-name="Thorn" unicode="&#x42e;" horiz-adv-x="1189" 
d="M1152 460c2 14 3.66699 26.332 5 36.999s2 21 2 31c0 40.667 -11.333 68.167 -34 82.5s-63 21.5 -121 21.5h-304c-66.667 0 -115.834 -12.167 -147.501 -36.5s-54.5 -69.5 -68.5 -135.5l-40 -222c-4 -22 -6 -41.667 -6 -59c0 -41.333 12.333 -69.833 37 -85.5
s66 -23.5 124 -23.5h304c72.667 0 122.334 10.833 149.001 32.5s46.667 66.834 60 135.501zM1184 237.999c-18.667 -96.667 -49.002 -161 -91.002 -193c-39.333 -30 -106.666 -45 -201.999 -45h-304c-79.333 0 -136.333 12 -171 36s-52 65 -52 123c0 22 2.66699 48.333 8 79
l15 84h-196l-58 -322h-72l125 694h72l-54 -302h196l11 62c16.667 90.667 46.334 154 89.001 190c45.333 38.667 116.333 58 213 58h304c74.667 0 128 -10.667 160 -32c36 -24 54 -67.333 54 -130c0 -23.333 -2.66699 -52 -8 -86z" />
    <glyph glyph-name="germandbls" unicode="&#xdf;" horiz-adv-x="819" 
d="M754 1h-72l52 286h-346l-274 -286h-100l288 286c-119.333 0 -179 47.667 -179 143c0 13.333 1.66699 30 5 50c14 77.333 43 132.333 87 165s109.333 49 196 49h468zM746 357l48 266.999h-425c-52 0 -90.667 -10.5 -116 -31.5s-43 -58.5 -53 -112.5
c-3.33301 -18.667 -5 -33.667 -5 -45c0 -31.333 9.83301 -52.166 29.5 -62.499s54.167 -15.5 103.5 -15.5h418z" />
    <glyph glyph-name="germandbls" unicode="&#x42f;" horiz-adv-x="819" 
d="M754 1h-72l52 286h-346l-274 -286h-100l288 286c-119.333 0 -179 47.667 -179 143c0 13.333 1.66699 30 5 50c14 77.333 43 132.333 87 165s109.333 49 196 49h468zM746 357l48 266.999h-425c-52 0 -90.667 -10.5 -116 -31.5s-43 -58.5 -53 -112.5
c-3.33301 -18.667 -5 -33.667 -5 -45c0 -31.333 9.83301 -52.166 29.5 -62.499s54.167 -15.5 103.5 -15.5h418z" />
    <glyph glyph-name="agrave" unicode="&#xe0;" horiz-adv-x="711" 
d="M81 186c6.66699 36 23.665 63.6699 50.998 83.0029c30.667 22 72 33 124 33h288c34 0 58 -6.33301 72 -19c4.66699 -4 8.33398 -10.667 11.001 -20l13 68c1.33301 9.33301 2 16.666 2 21.999c0 25.333 -7.66699 44.666 -23 57.999c-17.333 15.333 -44.333 23 -81 23h-191
c-50.667 0 -88 -10.667 -112 -32c-8 -6.66699 -15 -17.334 -21 -32.001l-4 -18h-74l4 18c-3.33301 28 16.334 56.667 59.001 86c36.667 25.333 83.667 38 141 38h217c55.333 0 95.666 -10.667 120.999 -32s38 -53 38 -95v-28c-2 -8.66699 -3.33301 -15 -4 -19l-58 -320h-72
l7 40c-10 -9.33301 -18.333 -16 -25 -20c-21.333 -13.333 -44.666 -20 -69.999 -20h-280c-48 -0 -84.333 7.83301 -109 23.5s-37 40.5 -37 74.5c0 8.66699 1 18 3 28zM271.998 242.003c-42.667 0 -72.332 -5.66602 -88.999 -16.999s-27.334 -29.666 -32.001 -54.999l-7 -36
c-1.33301 -8 -2 -14 -2 -18c0 -18.667 7.16699 -32.334 21.5 -41.001s39.5 -13 75.5 -13h244c38 0 66.833 7.16699 86.5 21.5s32.167 37.166 37.5 68.499c1.33301 4 2 8.33301 2 13v10c0 44.667 -31 67 -93 67h-244z" />
    <glyph glyph-name="agrave" unicode="&#x430;" horiz-adv-x="711" 
d="M81 186c6.66699 36 23.665 63.6699 50.998 83.0029c30.667 22 72 33 124 33h288c34 0 58 -6.33301 72 -19c4.66699 -4 8.33398 -10.667 11.001 -20l13 68c1.33301 9.33301 2 16.666 2 21.999c0 25.333 -7.66699 44.666 -23 57.999c-17.333 15.333 -44.333 23 -81 23h-191
c-50.667 0 -88 -10.667 -112 -32c-8 -6.66699 -15 -17.334 -21 -32.001l-4 -18h-74l4 18c-3.33301 28 16.334 56.667 59.001 86c36.667 25.333 83.667 38 141 38h217c55.333 0 95.666 -10.667 120.999 -32s38 -53 38 -95v-28c-2 -8.66699 -3.33301 -15 -4 -19l-58 -320h-72
l7 40c-10 -9.33301 -18.333 -16 -25 -20c-21.333 -13.333 -44.666 -20 -69.999 -20h-280c-48 -0 -84.333 7.83301 -109 23.5s-37 40.5 -37 74.5c0 8.66699 1 18 3 28zM271.998 242.003c-42.667 0 -72.332 -5.66602 -88.999 -16.999s-27.334 -29.666 -32.001 -54.999l-7 -36
c-1.33301 -8 -2 -14 -2 -18c0 -18.667 7.16699 -32.334 21.5 -41.001s39.5 -13 75.5 -13h244c38 0 66.833 7.16699 86.5 21.5s32.167 37.166 37.5 68.499c1.33301 4 2 8.33301 2 13v10c0 44.667 -31 67 -93 67h-244z" />
    <glyph glyph-name="aacute" unicode="&#xe1;" 
d="M709 194c-12 -58 -36.333 -103.667 -73 -137c-44 -39.333 -103.333 -59 -178 -59h-198c-62 0 -108.333 12.333 -139 37s-46 60.667 -46 108c0 13.333 1.66699 30 5 50l34 189c12.667 70 37 127 73 171c43.333 52.667 98 79 164 79h219c49.333 0 84.333 4.83301 105 14.5
s33 25.834 37 48.501h57c-8 -44.667 -27.5 -76.334 -58.5 -95.001s-78.167 -28 -141.5 -28h-211c-48 0 -87 -15.667 -117 -47c-25.333 -26.667 -41.666 -60.334 -48.999 -101.001c16 22 35.667 39 59 51c27.333 14 60 21 98 21h198c65.333 0 113.666 -14.667 144.999 -44
c26.667 -25.333 40 -60.666 40 -105.999v-26c-2 -8.66699 -3.33301 -14.667 -4 -18zM656 302c2 11.333 3 22 3 32c0 68 -42.667 102 -128 102h-188c-49.333 0 -88.5 -11.5 -117.5 -34.5s-47.5 -56.167 -55.5 -99.5l-19 -108c-2 -13.333 -3 -25 -3 -35
c0 -67.333 42.333 -101 127 -101h188c46.667 0 84.667 10.667 114 32c32 23.333 52 58 60 104z" />
    <glyph glyph-name="aacute" unicode="&#x431;" 
d="M709 194c-12 -58 -36.333 -103.667 -73 -137c-44 -39.333 -103.333 -59 -178 -59h-198c-62 0 -108.333 12.333 -139 37s-46 60.667 -46 108c0 13.333 1.66699 30 5 50l34 189c12.667 70 37 127 73 171c43.333 52.667 98 79 164 79h219c49.333 0 84.333 4.83301 105 14.5
s33 25.834 37 48.501h57c-8 -44.667 -27.5 -76.334 -58.5 -95.001s-78.167 -28 -141.5 -28h-211c-48 0 -87 -15.667 -117 -47c-25.333 -26.667 -41.666 -60.334 -48.999 -101.001c16 22 35.667 39 59 51c27.333 14 60 21 98 21h198c65.333 0 113.666 -14.667 144.999 -44
c26.667 -25.333 40 -60.666 40 -105.999v-26c-2 -8.66699 -3.33301 -14.667 -4 -18zM656 302c2 11.333 3 22 3 32c0 68 -42.667 102 -128 102h-188c-49.333 0 -88.5 -11.5 -117.5 -34.5s-47.5 -56.167 -55.5 -99.5l-19 -108c-2 -13.333 -3 -25 -3 -35
c0 -67.333 42.333 -101 127 -101h188c46.667 0 84.667 10.667 114 32c32 23.333 52 58 60 104z" />
    <glyph glyph-name="acircumflex" unicode="&#xe2;" horiz-adv-x="738" 
d="M211 438l-28 -155.999h373c61.333 0 96 22.667 104 68l4 20c0.666992 3.33301 1 7.66602 1 12.999c0 36.667 -27.667 55 -83 55h-371zM60 0.000976562l90 498h433c52 0 90.833 -9 116.5 -27s38.5 -43.333 38.5 -76v-12c-1.33301 -6 -2 -10.333 -2 -13l-4 -20
c-4.66699 -26 -15.667 -47.5 -33 -64.5s-38 -27.5 -62 -31.5c25.333 -6 44 -16.5 56 -31.5s18 -32.5 18 -52.5c0 -4 -0.666992 -10 -2 -18l-4 -22c-7.33301 -41.333 -27.5 -73.333 -60.5 -96s-79.833 -34 -140.5 -34h-444zM172 222.001l-29.001 -160h370
c72 0 112 22.667 120 68l4 22c1.33301 9.33301 2 16 2 20c0 16 -7.66699 28.333 -23 37s-43.666 13 -84.999 13h-359z" />
    <glyph glyph-name="acircumflex" unicode="&#x432;" horiz-adv-x="738" 
d="M211 438l-28 -155.999h373c61.333 0 96 22.667 104 68l4 20c0.666992 3.33301 1 7.66602 1 12.999c0 36.667 -27.667 55 -83 55h-371zM60 0.000976562l90 498h433c52 0 90.833 -9 116.5 -27s38.5 -43.333 38.5 -76v-12c-1.33301 -6 -2 -10.333 -2 -13l-4 -20
c-4.66699 -26 -15.667 -47.5 -33 -64.5s-38 -27.5 -62 -31.5c25.333 -6 44 -16.5 56 -31.5s18 -32.5 18 -52.5c0 -4 -0.666992 -10 -2 -18l-4 -22c-7.33301 -41.333 -27.5 -73.333 -60.5 -96s-79.833 -34 -140.5 -34h-444zM172 222.001l-29.001 -160h370
c72 0 112 22.667 120 68l4 22c1.33301 9.33301 2 16 2 20c0 16 -7.66699 28.333 -23 37s-43.666 13 -84.999 13h-359z" />
    <glyph glyph-name="atilde" unicode="&#xe3;" horiz-adv-x="549" 
d="M118 0h-72l89 494h470l-11 -60h-398z" />
    <glyph glyph-name="atilde" unicode="&#x433;" horiz-adv-x="549" 
d="M118 0h-72l89 494h470l-11 -60h-398z" />
    <glyph glyph-name="adieresis" unicode="&#xe4;" horiz-adv-x="792" 
d="M93 60c29.333 14.667 53.332 38.999 71.999 72.999c16.667 30.667 29.334 69.334 38.001 116.001l44 245h547l-78 -434h58l-45 -248h-69l34 188h-581l-34 -188h-69l45 248h38zM643.999 59.999l67 374.001h-403l-32 -176c-7.33301 -42.667 -17.333 -79.334 -30 -110.001
c-18 -42.667 -40.667 -72 -68 -88h466z" />
    <glyph glyph-name="adieresis" unicode="&#x434;" horiz-adv-x="792" 
d="M93 60c29.333 14.667 53.332 38.999 71.999 72.999c16.667 30.667 29.334 69.334 38.001 116.001l44 245h547l-78 -434h58l-45 -248h-69l34 188h-581l-34 -188h-69l45 248h38zM643.999 59.999l67 374.001h-403l-32 -176c-7.33301 -42.667 -17.333 -79.334 -30 -110.001
c-18 -42.667 -40.667 -72 -68 -88h466z" />
    <glyph glyph-name="aring" unicode="&#xe5;" horiz-adv-x="728" 
d="M662 302c2 11.333 3 22 3 32c0 32 -9.66699 57 -29 75s-47 27 -83 27h-226c-38 0 -70.833 -12.167 -98.5 -36.5s-45.167 -56.833 -52.5 -97.5h486zM166 242l-9.00195 -48.002c-1.33301 -6.66699 -2.33301 -13 -3 -19s-1 -12.333 -1 -19c0 -34.667 10.5 -59.667 31.5 -75
s49.167 -23 84.5 -23h235c38 0 68 8.5 90 25.5s35.667 38.5 41 64.5l1 10h72l-1 -10c-7.33301 -38 -25.666 -70.667 -54.999 -98c-37.333 -34.667 -86.666 -52 -147.999 -52h-242c-122.667 0 -184 46.333 -184 139c0 12.667 1.66699 28.334 5 47.001l24 130
c8.66699 48.667 34 90.334 76 125.001c46 38 101.333 57 166 57h208c60 0 106.333 -14 139 -42c30 -25.333 45 -59 45 -101c0 -10.667 -1 -21 -3 -31l-14 -80h-558z" />
    <glyph glyph-name="aring" unicode="&#x435;" horiz-adv-x="728" 
d="M662 302c2 11.333 3 22 3 32c0 32 -9.66699 57 -29 75s-47 27 -83 27h-226c-38 0 -70.833 -12.167 -98.5 -36.5s-45.167 -56.833 -52.5 -97.5h486zM166 242l-9.00195 -48.002c-1.33301 -6.66699 -2.33301 -13 -3 -19s-1 -12.333 -1 -19c0 -34.667 10.5 -59.667 31.5 -75
s49.167 -23 84.5 -23h235c38 0 68 8.5 90 25.5s35.667 38.5 41 64.5l1 10h72l-1 -10c-7.33301 -38 -25.666 -70.667 -54.999 -98c-37.333 -34.667 -86.666 -52 -147.999 -52h-242c-122.667 0 -184 46.333 -184 139c0 12.667 1.66699 28.334 5 47.001l24 130
c8.66699 48.667 34 90.334 76 125.001c46 38 101.333 57 166 57h208c60 0 106.333 -14 139 -42c30 -25.333 45 -59 45 -101c0 -10.667 -1 -21 -3 -31l-14 -80h-558z" />
    <glyph glyph-name="ae" unicode="&#xe6;" horiz-adv-x="977" 
d="M455 0h72l44 246h70l228 -246h99l-260 278l319 216h-106l-268 -188h-71l34 188h-72l-34 -188h-71l-200 188h-106l241 -216l-360 -278h99l316 246h70z" />
    <glyph glyph-name="ae" unicode="&#x436;" horiz-adv-x="977" 
d="M455 0h72l44 246h70l228 -246h99l-260 278l319 216h-106l-268 -188h-71l34 188h-72l-34 -188h-71l-200 188h-106l241 -216l-360 -278h99l316 246h70z" />
    <glyph glyph-name="ccedilla" unicode="&#xe7;" horiz-adv-x="728" 
d="M494 0c60.667 0 107.5 11 140.5 33s53.167 53.667 60.5 95l4 22c1.33301 8 2 14.333 2 19c0 19.333 -6 36.5 -18 51.5s-31 25.5 -57 31.5c24.667 4 45.5 14.167 62.5 30.5s28.167 38.166 33.5 65.499l3 20c1.33301 4.66699 2 9.5 2 14.5v11.5c0 32 -12.833 57 -38.5 75
s-64.5 27 -116.5 27h-221c-82 0 -142.667 -13.333 -182 -40c-29.333 -20 -47.333 -47.333 -54 -82l-6 -34h72l6 32c3.33301 21.333 18.5 37.333 45.5 48s62.167 16 105.5 16h233c55.333 0 83 -18.333 83 -55c0 -5.33301 -0.333008 -9.66602 -1 -12.999l-3 -20
c-8.66699 -45.333 -43.667 -68 -105 -68h-269l-10 -60h255c42 0 70.5 -4.33301 85.5 -13s22.5 -21.667 22.5 -39c0 -4 -0.666992 -10 -2 -18l-4 -22c-8 -45.333 -48 -68 -120 -68h-256c-40 0 -67.667 4.5 -83 13.5s-23 22.167 -23 39.5c0 3.33301 0.666992 9 2 17l5 28h-72
l-6 -36c-2 -9.33301 -3 -18 -3 -26c0 -29.333 10.333 -52 31 -68c26 -20 66.667 -30 122 -30z" />
    <glyph glyph-name="ccedilla" unicode="&#x437;" horiz-adv-x="728" 
d="M494 0c60.667 0 107.5 11 140.5 33s53.167 53.667 60.5 95l4 22c1.33301 8 2 14.333 2 19c0 19.333 -6 36.5 -18 51.5s-31 25.5 -57 31.5c24.667 4 45.5 14.167 62.5 30.5s28.167 38.166 33.5 65.499l3 20c1.33301 4.66699 2 9.5 2 14.5v11.5c0 32 -12.833 57 -38.5 75
s-64.5 27 -116.5 27h-221c-82 0 -142.667 -13.333 -182 -40c-29.333 -20 -47.333 -47.333 -54 -82l-6 -34h72l6 32c3.33301 21.333 18.5 37.333 45.5 48s62.167 16 105.5 16h233c55.333 0 83 -18.333 83 -55c0 -5.33301 -0.333008 -9.66602 -1 -12.999l-3 -20
c-8.66699 -45.333 -43.667 -68 -105 -68h-269l-10 -60h255c42 0 70.5 -4.33301 85.5 -13s22.5 -21.667 22.5 -39c0 -4 -0.666992 -10 -2 -18l-4 -22c-8 -45.333 -48 -68 -120 -68h-256c-40 0 -67.667 4.5 -83 13.5s-23 22.167 -23 39.5c0 3.33301 0.666992 9 2 17l5 28h-72
l-6 -36c-2 -9.33301 -3 -18 -3 -26c0 -29.333 10.333 -52 31 -68c26 -20 66.667 -30 122 -30z" />
    <glyph glyph-name="egrave" unicode="&#xe8;" horiz-adv-x="738" 
d="M58 0l89 494h72l-79 -438h23l486 438h120l-89 -494h-72l79 438h-20l-486 -438h-123z" />
    <glyph glyph-name="egrave" unicode="&#x438;" horiz-adv-x="738" 
d="M58 0l89 494h72l-79 -438h23l486 438h120l-89 -494h-72l79 438h-20l-486 -438h-123z" />
    <glyph glyph-name="eacute" unicode="&#xe9;" horiz-adv-x="738" 
d="M58 0l89 494h72l-79 -438h23l486 438h120l-89 -494h-72l79 438h-20l-486 -438h-123zM457 589l9 0.000976562c56 0 94 5.66699 114 17s32.333 31.666 37 60.999h58c-8 -48 -25.333 -81.333 -52 -100c-33.333 -24 -91 -36 -173 -36c-67.333 0 -113.833 7.83301 -139.5 23.5
s-38.5 40.167 -38.5 73.5c0 10 0.666992 18.167 2 24.5s2 11.166 2 14.499h58c-2 -9.33301 -3 -17.333 -3 -24c0 -19.333 9 -33.166 27 -41.499s51 -12.5 99 -12.5z" />
    <glyph glyph-name="eacute" unicode="&#x439;" horiz-adv-x="738" 
d="M58 0l89 494h72l-79 -438h23l486 438h120l-89 -494h-72l79 438h-20l-486 -438h-123zM457 589l9 0.000976562c56 0 94 5.66699 114 17s32.333 31.666 37 60.999h58c-8 -48 -25.333 -81.333 -52 -100c-33.333 -24 -91 -36 -173 -36c-67.333 0 -113.833 7.83301 -139.5 23.5
s-38.5 40.167 -38.5 73.5c0 10 0.666992 18.167 2 24.5s2 11.166 2 14.499h58c-2 -9.33301 -3 -17.333 -3 -24c0 -19.333 9 -33.166 27 -41.499s51 -12.5 99 -12.5z" />
    <glyph glyph-name="ecircumflex" unicode="&#xea;" horiz-adv-x="620" 
d="M58 0l89 494h72l-34 -188h78l294 188h115l-352 -220l289 -274h-104l-254 246h-77l-44 -246h-72z" />
    <glyph glyph-name="ecircumflex" unicode="&#x43a;" horiz-adv-x="620" 
d="M58 0l89 494h72l-34 -188h78l294 188h115l-352 -220l289 -274h-104l-254 246h-77l-44 -246h-72z" />
    <glyph glyph-name="edieresis" unicode="&#xeb;" horiz-adv-x="763" 
d="M711 434l-413 0.000976562l-45 -250c-11.333 -62 -34.833 -108.167 -70.5 -138.5s-82.5 -45.5 -140.5 -45.5h-21l11 60h21c36 0 64.5 10.167 85.5 30.5s35.167 52.166 42.5 95.499l56 308h557l-89 -494h-72z" />
    <glyph glyph-name="edieresis" unicode="&#x43b;" horiz-adv-x="763" 
d="M711 434l-413 0.000976562l-45 -250c-11.333 -62 -34.833 -108.167 -70.5 -138.5s-82.5 -45.5 -140.5 -45.5h-21l11 60h21c36 0 64.5 10.167 85.5 30.5s35.167 52.166 42.5 95.499l56 308h557l-89 -494h-72z" />
    <glyph glyph-name="igrave" unicode="&#xec;" horiz-adv-x="869" 
d="M902 494h-130l-327 -421l-173 421h-130l-89 -494h72l79 438h22l183 -438h48l341 438h22l-79 -438h72z" />
    <glyph glyph-name="igrave" unicode="&#x43c;" horiz-adv-x="869" 
d="M902 494h-130l-327 -421l-173 421h-130l-89 -494h72l79 438h22l183 -438h48l341 438h22l-79 -438h72z" />
    <glyph glyph-name="iacute" unicode="&#xed;" horiz-adv-x="738" 
d="M130 0h-72l89 494h72l-36 -202h478l36 202h72l-89 -494h-72l42 232h-478z" />
    <glyph glyph-name="iacute" unicode="&#x43d;" horiz-adv-x="738" 
d="M130 0h-72l89 494h72l-36 -202h478l36 202h72l-89 -494h-72l42 232h-478z" />
    <glyph glyph-name="icircumflex" unicode="&#xee;" 
d="M98 302c12.667 60.667 37.667 106.999 75 138.999c42.667 36.667 101.334 55 176.001 55h198c65.333 0 113.666 -14.667 144.999 -44c26.667 -25.333 40 -60.666 40 -105.999v-26c-2 -8.66699 -3.33301 -14.667 -4 -18l-19 -108c-12 -58 -36.333 -103.667 -73 -137
c-44 -39.333 -103.333 -59 -178 -59h-198c-62.667 0 -109.167 12.5 -139.5 37.5s-45.5 62.167 -45.5 111.5v18.5c0 5 1.33301 14.5 4 28.5l8 54zM151 193.999c-2 -13.333 -3 -25 -3 -35c0 -67.333 42.333 -101 127 -101h188c46.667 0 84.667 10.667 114 32
c32 23.333 52 58 60 104l19 108c2 11.333 3 22 3 32c0 68 -42.667 102 -128 102h-188c-50 0 -88.833 -10.5 -116.5 -31.5s-46.5 -55.167 -56.5 -102.5z" />
    <glyph glyph-name="icircumflex" unicode="&#x43e;" 
d="M98 302c12.667 60.667 37.667 106.999 75 138.999c42.667 36.667 101.334 55 176.001 55h198c65.333 0 113.666 -14.667 144.999 -44c26.667 -25.333 40 -60.666 40 -105.999v-26c-2 -8.66699 -3.33301 -14.667 -4 -18l-19 -108c-12 -58 -36.333 -103.667 -73 -137
c-44 -39.333 -103.333 -59 -178 -59h-198c-62.667 0 -109.167 12.5 -139.5 37.5s-45.5 62.167 -45.5 111.5v18.5c0 5 1.33301 14.5 4 28.5l8 54zM151 193.999c-2 -13.333 -3 -25 -3 -35c0 -67.333 42.333 -101 127 -101h188c46.667 0 84.667 10.667 114 32
c32 23.333 52 58 60 104l19 108c2 11.333 3 22 3 32c0 68 -42.667 102 -128 102h-188c-50 0 -88.833 -10.5 -116.5 -31.5s-46.5 -55.167 -56.5 -102.5z" />
    <glyph glyph-name="idieresis" unicode="&#xef;" horiz-adv-x="738" 
d="M130 0h-72l89 494h622l-89 -494h-72l78 434h-478z" />
    <glyph glyph-name="idieresis" unicode="&#x43f;" horiz-adv-x="738" 
d="M130 0h-72l89 494h622l-89 -494h-72l78 434h-478z" />
    <glyph glyph-name="eth" unicode="&#xf0;" 
d="M357 494l193.999 -0.000976562c64 0 110.667 -14.333 140 -43c26 -25.333 39 -61 39 -107c0 -11.333 -0.666992 -20.666 -2 -27.999s-2 -12.666 -2 -15.999l-19 -108c-12.667 -60.667 -38 -107.334 -76 -140.001c-41.333 -36 -97.666 -54 -168.999 -54h-194
c-45.333 0 -81.333 9.33301 -108 28c-8.66699 6 -17.334 15.333 -26.001 28l-46 -256h-72l125 696h72l-10 -54c12.667 12 24.334 21 35.001 27c32 18 69.667 27 113 27h6zM175.999 299.999l-12.001 -54l-7 -54c-2 -10 -3 -20 -3 -30c0 -31.333 10.833 -56.5 32.5 -75.5
s54.5 -28.5 98.5 -28.5h161c54.667 0 97.667 10.5 129 31.5s51.333 55.167 60 102.5l19 108c2 12 3 23 3 33c0 33.333 -12.167 58.5 -36.5 75.5s-59.833 25.5 -106.5 25.5h-160c-50.667 0 -91.167 -12.333 -121.5 -37s-49.166 -57 -56.499 -97z" />
    <glyph glyph-name="eth" unicode="&#x440;" 
d="M357 494l193.999 -0.000976562c64 0 110.667 -14.333 140 -43c26 -25.333 39 -61 39 -107c0 -11.333 -0.666992 -20.666 -2 -27.999s-2 -12.666 -2 -15.999l-19 -108c-12.667 -60.667 -38 -107.334 -76 -140.001c-41.333 -36 -97.666 -54 -168.999 -54h-194
c-45.333 0 -81.333 9.33301 -108 28c-8.66699 6 -17.334 15.333 -26.001 28l-46 -256h-72l125 696h72l-10 -54c12.667 12 24.334 21 35.001 27c32 18 69.667 27 113 27h6zM175.999 299.999l-12.001 -54l-7 -54c-2 -10 -3 -20 -3 -30c0 -31.333 10.833 -56.5 32.5 -75.5
s54.5 -28.5 98.5 -28.5h161c54.667 0 97.667 10.5 129 31.5s51.333 55.167 60 102.5l19 108c2 12 3 23 3 33c0 33.333 -12.167 58.5 -36.5 75.5s-59.833 25.5 -106.5 25.5h-160c-50.667 0 -91.167 -12.333 -121.5 -37s-49.166 -57 -56.499 -97z" />
    <glyph glyph-name="ntilde" unicode="&#xf1;" 
d="M326 436c-42.667 0 -77.499 -10.835 -104.499 -32.502s-44.5 -54.167 -52.5 -97.5l-22 -124c-2 -10 -3 -19 -3 -27c0 -30.667 10.167 -54.5 30.5 -71.5s46.5 -25.5 78.5 -25.5h220c53.333 0 94.333 14.333 123 43c18 18 29.333 39 34 63l1 10h72l-1 -8
c-4.66699 -25.333 -13 -47.666 -25 -66.999c-41.333 -67.333 -112.333 -101 -213 -101h-222c-58 0 -101 12 -129 36s-42 58.333 -42 103v17c0 6 1.33301 15.333 4 28l22 124c10 56.667 34.667 101.667 74 135c42.667 36.667 98 55 166 55h216l2 -2
c69.333 0 118.666 -17 147.999 -51c20 -23.333 30 -53 30 -89c0 -9.33301 -0.666992 -17.333 -2 -24l-1 -8h-72l1 6c0.666992 2.66699 1 8.33398 1 17.001c0 24 -6.66699 43.333 -20 58c-19.333 22 -52 33 -98 33h-216z" />
    <glyph glyph-name="ntilde" unicode="&#x441;" 
d="M326 436c-42.667 0 -77.499 -10.835 -104.499 -32.502s-44.5 -54.167 -52.5 -97.5l-22 -124c-2 -10 -3 -19 -3 -27c0 -30.667 10.167 -54.5 30.5 -71.5s46.5 -25.5 78.5 -25.5h220c53.333 0 94.333 14.333 123 43c18 18 29.333 39 34 63l1 10h72l-1 -8
c-4.66699 -25.333 -13 -47.666 -25 -66.999c-41.333 -67.333 -112.333 -101 -213 -101h-222c-58 0 -101 12 -129 36s-42 58.333 -42 103v17c0 6 1.33301 15.333 4 28l22 124c10 56.667 34.667 101.667 74 135c42.667 36.667 98 55 166 55h216l2 -2
c69.333 0 118.666 -17 147.999 -51c20 -23.333 30 -53 30 -89c0 -9.33301 -0.666992 -17.333 -2 -24l-1 -8h-72l1 6c0.666992 2.66699 1 8.33398 1 17.001c0 24 -6.66699 43.333 -20 58c-19.333 22 -52 33 -98 33h-216z" />
    <glyph glyph-name="ograve" unicode="&#xf2;" horiz-adv-x="668" 
d="M367 0h-72l78 434h-270l11 60h342h270l-11 -60h-270z" />
    <glyph glyph-name="ograve" unicode="&#x442;" horiz-adv-x="668" 
d="M367 0h-72l78 434h-270l11 60h342h270l-11 -60h-270z" />
    <glyph glyph-name="oacute" unicode="&#xf3;" horiz-adv-x="589" 
d="M91 494h75l154 -424h14l258 424h75l-349 -559c-34 -54.667 -64.667 -91.667 -92 -111c-34 -24 -80 -36 -138 -36h-24l11 60h42c38 0 70.333 13.667 97 41c16 16 41.667 53 77 111h-18z" />
    <glyph glyph-name="oacute" unicode="&#x443;" horiz-adv-x="589" 
d="M91 494h75l154 -424h14l258 424h75l-349 -559c-34 -54.667 -64.667 -91.667 -92 -111c-34 -24 -80 -36 -138 -36h-24l11 60h42c38 0 70.333 13.667 97 41c16 16 41.667 53 77 111h-18z" />
    <glyph glyph-name="ocircumflex" unicode="&#xf4;" horiz-adv-x="1070" 
d="M463 -202l46.0029 256c-12.667 -12.667 -24.334 -22 -35.001 -28c-32.667 -18.667 -72.334 -28 -119.001 -28h-89c-62.667 0 -108.334 13.833 -137.001 41.5s-43 66.167 -43 115.5v17c1.33301 8.66699 2 15 2 19l20 109c14.667 58.667 39.334 104 74.001 136
c42 38.667 99.667 58 173 58h89h6c43.333 0 77.666 -9 102.999 -27c8 -6 16.333 -15 25 -27l45 250h72l-45 -250c12.667 12 24.334 21 35.001 27c32 18 69.667 27 113 27h6h89c64.667 0 111.667 -15 141 -45c25.333 -26 38 -63 38 -111v-14v-12
c-1.33301 -5.33301 -2 -9.33301 -2 -12l-20 -109c-14.667 -60.667 -40.334 -107 -77.001 -139c-41.333 -36 -97.666 -54 -168.999 -54h-89c-45.333 0 -81.333 9.33301 -108 28c-8.66699 6 -17.334 15.333 -26.001 28l-46 -256h-72zM623.003 300l-12.001 -54l-7 -54
c-2 -10 -3 -19.667 -3 -29c0 -32 10.833 -57.5 32.5 -76.5s55.167 -28.5 100.5 -28.5h56c54.667 0 97.667 10.5 129 31.5s51.333 55.167 60 102.5l19 108c2 12 3 23 3 33c0 33.333 -12.167 58.5 -36.5 75.5s-59.833 25.5 -106.5 25.5h-57
c-50.667 0 -91.167 -12.333 -121.5 -37s-49.166 -57 -56.499 -97zM555.002 301c2 10 3.00293 19.668 3.00293 29.001c0 31.333 -11.167 56.666 -33.5 75.999s-55.5 29 -99.5 29h-57c-108.667 0 -171.334 -44.667 -188.001 -134l-19 -108c-2 -12 -3 -23.667 -3 -35
c0 -34 12.167 -59.167 36.5 -75.5s60.5 -24.5 108.5 -24.5h51c51.333 0 92.666 12.5 123.999 37.5s50.666 57.5 57.999 97.5l11 54z" />
    <glyph glyph-name="ocircumflex" unicode="&#x444;" horiz-adv-x="1070" 
d="M463 -202l46.0029 256c-12.667 -12.667 -24.334 -22 -35.001 -28c-32.667 -18.667 -72.334 -28 -119.001 -28h-89c-62.667 0 -108.334 13.833 -137.001 41.5s-43 66.167 -43 115.5v17c1.33301 8.66699 2 15 2 19l20 109c14.667 58.667 39.334 104 74.001 136
c42 38.667 99.667 58 173 58h89h6c43.333 0 77.666 -9 102.999 -27c8 -6 16.333 -15 25 -27l45 250h72l-45 -250c12.667 12 24.334 21 35.001 27c32 18 69.667 27 113 27h6h89c64.667 0 111.667 -15 141 -45c25.333 -26 38 -63 38 -111v-14v-12
c-1.33301 -5.33301 -2 -9.33301 -2 -12l-20 -109c-14.667 -60.667 -40.334 -107 -77.001 -139c-41.333 -36 -97.666 -54 -168.999 -54h-89c-45.333 0 -81.333 9.33301 -108 28c-8.66699 6 -17.334 15.333 -26.001 28l-46 -256h-72zM623.003 300l-12.001 -54l-7 -54
c-2 -10 -3 -19.667 -3 -29c0 -32 10.833 -57.5 32.5 -76.5s55.167 -28.5 100.5 -28.5h56c54.667 0 97.667 10.5 129 31.5s51.333 55.167 60 102.5l19 108c2 12 3 23 3 33c0 33.333 -12.167 58.5 -36.5 75.5s-59.833 25.5 -106.5 25.5h-57
c-50.667 0 -91.167 -12.333 -121.5 -37s-49.166 -57 -56.499 -97zM555.002 301c2 10 3.00293 19.668 3.00293 29.001c0 31.333 -11.167 56.666 -33.5 75.999s-55.5 29 -99.5 29h-57c-108.667 0 -171.334 -44.667 -188.001 -134l-19 -108c-2 -12 -3 -23.667 -3 -35
c0 -34 12.167 -59.167 36.5 -75.5s60.5 -24.5 108.5 -24.5h51c51.333 0 92.666 12.5 123.999 37.5s50.666 57.5 57.999 97.5l11 54z" />
    <glyph glyph-name="otilde" unicode="&#xf5;" horiz-adv-x="637" 
d="M133 494h88l153 -182l215 182h88l-269 -226l220 -268h-90l-182 222l-264 -222h-86l314 268z" />
    <glyph glyph-name="otilde" unicode="&#x445;" horiz-adv-x="637" 
d="M133 494h88l153 -182l215 182h88l-269 -226l220 -268h-90l-182 222l-264 -222h-86l314 268z" />
    <glyph glyph-name="odieresis" unicode="&#xf6;" horiz-adv-x="766" 
d="M141 60h478l78 434h72l-78 -434h59l-45 -248h-70l34 188h-611l89 494h72z" />
    <glyph glyph-name="odieresis" unicode="&#x446;" horiz-adv-x="766" 
d="M141 60h478l78 434h72l-78 -434h59l-45 -248h-70l34 188h-611l89 494h72z" />
    <glyph glyph-name="divide" unicode="&#xf7;" horiz-adv-x="684" 
d="M725 495l-88.999 -494h-72l46 255c-8 -12 -24.667 -24.333 -50 -37c-34 -16.667 -69 -25 -105 -25h-158c-64 0 -111 12.333 -141 37s-45 61 -45 109c0 13.333 1.66699 30 5 50l19 105h72l-20 -111c-2 -11.333 -3 -21.333 -3 -30c0 -32.667 10.5 -57.167 31.5 -73.5
s51.833 -24.5 92.5 -24.5h158c40 0 75 10 105 30c33.333 22 53.666 52.667 60.999 92l21 117h72z" />
    <glyph glyph-name="divide" unicode="&#x447;" horiz-adv-x="684" 
d="M725 495l-88.999 -494h-72l46 255c-8 -12 -24.667 -24.333 -50 -37c-34 -16.667 -69 -25 -105 -25h-158c-64 0 -111 12.333 -141 37s-45 61 -45 109c0 13.333 1.66699 30 5 50l19 105h72l-20 -111c-2 -11.333 -3 -21.333 -3 -30c0 -32.667 10.5 -57.167 31.5 -73.5
s51.833 -24.5 92.5 -24.5h158c40 0 75 10 105 30c33.333 22 53.666 52.667 60.999 92l21 117h72z" />
    <glyph glyph-name="oslash" unicode="&#xf8;" horiz-adv-x="1088" 
d="M137 494h72l-78 -434h385l78 434h72l-78 -434h385l78 434h72l-89 -494h-986z" />
    <glyph glyph-name="oslash" unicode="&#x448;" horiz-adv-x="1088" 
d="M137 494h72l-78 -434h385l78 434h72l-78 -434h385l78 434h72l-89 -494h-986z" />
    <glyph glyph-name="ugrave" unicode="&#xf9;" horiz-adv-x="1108" 
d="M137 494h72l-78 -434h385l78 434h72l-78 -434h385l78 434h72l-78 -434h58l-45 -248h-69l34 188h-975z" />
    <glyph glyph-name="ugrave" unicode="&#x449;" horiz-adv-x="1108" 
d="M137 494h72l-78 -434h385l78 434h72l-78 -434h385l78 434h72l-78 -434h58l-45 -248h-69l34 188h-975z" />
    <glyph glyph-name="uacute" unicode="&#xfa;" horiz-adv-x="798" 
d="M796 186c1.33301 5.33301 2 13.666 2 24.999c0 28.667 -10.833 51 -32.5 67s-55.834 24 -102.501 24h-384l35 192h-216l-11 -60h142l-78 -434h446c54.667 0 97.834 10.333 129.501 31s51.5 52.334 59.5 95.001zM269 242h358c36.667 0 62 -4.16699 76 -12.5
s21 -21.5 21 -39.5c0 -4 -0.666992 -10.667 -2 -20l-7 -36c-4.66699 -24 -15 -41.667 -31 -53c-20 -14 -50.333 -21 -91 -21h-357z" />
    <glyph glyph-name="uacute" unicode="&#x44a;" horiz-adv-x="798" 
d="M796 186c1.33301 5.33301 2 13.666 2 24.999c0 28.667 -10.833 51 -32.5 67s-55.834 24 -102.501 24h-384l35 192h-216l-11 -60h142l-78 -434h446c54.667 0 97.834 10.333 129.501 31s51.5 52.334 59.5 95.001zM269 242h358c36.667 0 62 -4.16699 76 -12.5
s21 -21.5 21 -39.5c0 -4 -0.666992 -10.667 -2 -20l-7 -36c-4.66699 -24 -15 -41.667 -31 -53c-20 -14 -50.333 -21 -91 -21h-357z" />
    <glyph glyph-name="ucircumflex" unicode="&#xfb;" horiz-adv-x="909" 
d="M700 186c1.33301 5.33301 2 13.666 2 24.999c0 28.667 -10.833 51 -32.5 67s-55.834 24 -102.501 24h-384l35 192h-74l-89 -494h446c54.667 0 97.834 10.333 129.501 31s51.5 52.334 59.5 95.001zM173 242h358c36.667 0 62 -4.16699 76 -12.5s21 -21.5 21 -39.5
c0 -4 -0.666992 -10.667 -2 -20l-7 -36c-4.66699 -24 -15 -41.667 -31 -53c-20 -14 -50.333 -21 -91 -21h-357zM777 0l89 494h72l-89 -494h-72z" />
    <glyph glyph-name="ucircumflex" unicode="&#x44b;" horiz-adv-x="909" 
d="M700 186c1.33301 5.33301 2 13.666 2 24.999c0 28.667 -10.833 51 -32.5 67s-55.834 24 -102.501 24h-384l35 192h-74l-89 -494h446c54.667 0 97.834 10.333 129.501 31s51.5 52.334 59.5 95.001zM173 242h358c36.667 0 62 -4.16699 76 -12.5s21 -21.5 21 -39.5
c0 -4 -0.666992 -10.667 -2 -20l-7 -36c-4.66699 -24 -15 -41.667 -31 -53c-20 -14 -50.333 -21 -91 -21h-357zM777 0l89 494h72l-89 -494h-72z" />
    <glyph glyph-name="udieresis" unicode="&#xfc;" horiz-adv-x="702" 
d="M700 186c1.33301 5.33301 2 13.666 2 24.999c0 28.667 -10.833 51 -32.5 67s-55.834 24 -102.501 24h-384l35 192h-74l-89 -494h446c54.667 0 97.834 10.333 129.501 31s51.5 52.334 59.5 95.001zM173 242h358c36.667 0 62 -4.16699 76 -12.5s21 -21.5 21 -39.5
c0 -4 -0.666992 -10.667 -2 -20l-7 -36c-4.66699 -24 -15 -41.667 -31 -53c-20 -14 -50.333 -21 -91 -21h-357z" />
    <glyph glyph-name="udieresis" unicode="&#x44c;" horiz-adv-x="702" 
d="M700 186c1.33301 5.33301 2 13.666 2 24.999c0 28.667 -10.833 51 -32.5 67s-55.834 24 -102.501 24h-384l35 192h-74l-89 -494h446c54.667 0 97.834 10.333 129.501 31s51.5 52.334 59.5 95.001zM173 242h358c36.667 0 62 -4.16699 76 -12.5s21 -21.5 21 -39.5
c0 -4 -0.666992 -10.667 -2 -20l-7 -36c-4.66699 -24 -15 -41.667 -31 -53c-20 -14 -50.333 -21 -91 -21h-357z" />
    <glyph glyph-name="yacute" unicode="&#xfd;" 
d="M261 58l220.002 0.00195312c36 0 68.5 11.167 97.5 33.5s47.167 52.5 54.5 90.5l8 48h-422l11 60h422l3 16c2 12 3 23.333 3 34c0 64 -38 96 -114 96h-216c-42.667 0 -77.834 -9.5 -105.501 -28.5s-44.167 -45.5 -49.5 -79.5l-1 -6h-72l1 8
c9.33301 50 35 89.833 77 119.5s95 44.5 159 44.5l2 2h216c58 0 101.833 -13.667 131.5 -41s44.5 -63.333 44.5 -108c0 -14.667 -1.33301 -28.334 -4 -41.001l-22 -124c-10.667 -58 -35.334 -103.167 -74.001 -135.5s-91.667 -48.5 -159 -48.5h-222c-70 0 -120 17 -150 51
c-20.667 23.333 -31 53.333 -31 90c0 5.33301 0.5 10.666 1.5 15.999s1.5 9 1.5 11l1 8h72l-1 -10c-1.33301 -5.33301 -2 -11 -2 -17c0 -24 6.66699 -43 20 -57c20 -21.333 53 -32 99 -32z" />
    <glyph glyph-name="yacute" unicode="&#x44d;" 
d="M261 58l220.002 0.00195312c36 0 68.5 11.167 97.5 33.5s47.167 52.5 54.5 90.5l8 48h-422l11 60h422l3 16c2 12 3 23.333 3 34c0 64 -38 96 -114 96h-216c-42.667 0 -77.834 -9.5 -105.501 -28.5s-44.167 -45.5 -49.5 -79.5l-1 -6h-72l1 8
c9.33301 50 35 89.833 77 119.5s95 44.5 159 44.5l2 2h216c58 0 101.833 -13.667 131.5 -41s44.5 -63.333 44.5 -108c0 -14.667 -1.33301 -28.334 -4 -41.001l-22 -124c-10.667 -58 -35.334 -103.167 -74.001 -135.5s-91.667 -48.5 -159 -48.5h-222c-70 0 -120 17 -150 51
c-20.667 23.333 -31 53.333 -31 90c0 5.33301 0.5 10.666 1.5 15.999s1.5 9 1.5 11l1 8h72l-1 -10c-1.33301 -5.33301 -2 -11 -2 -17c0 -24 6.66699 -43 20 -57c20 -21.333 53 -32 99 -32z" />
    <glyph glyph-name="thorn" unicode="&#xfe;" horiz-adv-x="900" 
d="M283 302c12.667 60 37.668 106.332 75.001 138.999c42.667 36.667 101 55 175 55h198c65.333 0 113.666 -14.667 144.999 -44c26.667 -25.333 40 -60.666 40 -105.999v-26c-2 -8.66699 -3.33301 -14.667 -4 -18l-19 -108c-12 -58 -36.333 -103.667 -73 -137
c-44 -39.333 -103.333 -59 -178 -59h-198c-122.667 0 -184 49.333 -184 148v19c0 5.33301 1.33301 15 4 29l7 40h-27h-86l-42 -232h-72l89 494h72l-36 -202h86h27zM335.001 193.999c-2 -13.333 -3 -25 -3 -35c0 -67.333 42.333 -101 127 -101h187c47.333 0 86.333 11 117 33
s50 56.333 58 103l19 108c2 11.333 3 22 3 32c0 68 -43 102 -129 102h-187c-50 0 -88.833 -10.5 -116.5 -31.5s-46.5 -55.167 -56.5 -102.5z" />
    <glyph glyph-name="thorn" unicode="&#x44e;" horiz-adv-x="900" 
d="M283 302c12.667 60 37.668 106.332 75.001 138.999c42.667 36.667 101 55 175 55h198c65.333 0 113.666 -14.667 144.999 -44c26.667 -25.333 40 -60.666 40 -105.999v-26c-2 -8.66699 -3.33301 -14.667 -4 -18l-19 -108c-12 -58 -36.333 -103.667 -73 -137
c-44 -39.333 -103.333 -59 -178 -59h-198c-122.667 0 -184 49.333 -184 148v19c0 5.33301 1.33301 15 4 29l7 40h-27h-86l-42 -232h-72l89 494h72l-36 -202h86h27zM335.001 193.999c-2 -13.333 -3 -25 -3 -35c0 -67.333 42.333 -101 127 -101h187c47.333 0 86.333 11 117 33
s50 56.333 58 103l19 108c2 11.333 3 22 3 32c0 68 -43 102 -129 102h-187c-50 0 -88.833 -10.5 -116.5 -31.5s-46.5 -55.167 -56.5 -102.5z" />
    <glyph glyph-name="ydieresis" unicode="&#xff;" horiz-adv-x="705" 
d="M78 308c-1.33301 -10.667 -1.99902 -18.3311 -1.99902 -22.998c0 -28.667 11.167 -51.334 33.5 -68.001s56.5 -25 102.5 -25h21l-253 -192h102l235 192h278l-35 -192h74l89 494h-445c-54.667 0 -97.834 -10.333 -129.501 -31s-51.5 -52.334 -59.5 -95.001z
M605.001 252.003h-357c-36.667 0 -62 4.16699 -76 12.5s-21 21.5 -21 39.5c0 4 0.666992 10.667 2 20l7 36c4.66699 24 15 41.667 31 53c20 14 50.333 21 91 21h356z" />
    <glyph glyph-name="ydieresis" unicode="&#x44f;" horiz-adv-x="705" 
d="M78 308c-1.33301 -10.667 -1.99902 -18.3311 -1.99902 -22.998c0 -28.667 11.167 -51.334 33.5 -68.001s56.5 -25 102.5 -25h21l-253 -192h102l235 192h278l-35 -192h74l89 494h-445c-54.667 0 -97.834 -10.333 -129.501 -31s-51.5 -52.334 -59.5 -95.001z
M605.001 252.003h-357c-36.667 0 -62 4.16699 -76 12.5s-21 21.5 -21 39.5c0 4 0.666992 10.667 2 20l7 36c4.66699 24 15 41.667 31 53c20 14 50.333 21 91 21h356z" />
    <glyph glyph-name="endash" unicode="&#x2013;" horiz-adv-x="576" 
d="M113 328h458l-13 -72h-458z" />
    <glyph glyph-name="emdash" unicode="&#x2014;" horiz-adv-x="956" 
d="M153 328h762l-13 -72h-762z" />
    <glyph glyph-name="quoteleft" unicode="&#x2018;" horiz-adv-x="186" 
d="M246 620l-14 -77.998h-78l23 128c2 12 6.33301 22.667 13 32s14.667 16.666 24 21.999h38c-10.667 -6.66699 -19 -14.334 -25 -23.001s-10 -19 -12 -31l-9 -50h40z" />
    <glyph glyph-name="quoteright" unicode="&#x2019;" horiz-adv-x="186" 
d="M167 616l14 77.999h78l-23 -130c-2 -11.333 -6.16699 -21.333 -12.5 -30s-14.833 -16.667 -25.5 -24h-38c9.33301 6 17.833 13.833 25.5 23.5s12.5 19.834 14.5 30.501l9 52h-42z" />
    <glyph glyph-name="quotesinglbase" unicode="&#x201a;" horiz-adv-x="189" 
d="M60 0l14 78h78l-23 -130c-2 -11.333 -6.16699 -21.333 -12.5 -30s-14.833 -16.667 -25.5 -24h-38c21.333 14 34 32 38 54l9 52h-40z" />
    <glyph glyph-name="quotedblleft" unicode="&#x201c;" horiz-adv-x="348" 
d="M410 624l-13.999 -78h-78l23 128c2.66699 11.333 7.5 22 14.5 32s14.833 18 23.5 24h36c-9.33301 -6.66699 -17.333 -14.667 -24 -24s-11.334 -20 -14.001 -32l-9 -50h42zM248.001 624l-13.999 -78h-78l23 128c2.66699 11.333 7.5 22 14.5 32s14.833 18 23.5 24h38
c-20.667 -13.333 -33.334 -32 -38.001 -56l-9 -50h40z" />
    <glyph glyph-name="quotedblright" unicode="&#x201d;" horiz-adv-x="358" 
d="M171 616l14 78h78l-23 -130c-2 -11.333 -6.16699 -21.333 -12.5 -30s-14.833 -16.667 -25.5 -24h-38c21.333 14 34 32 38 54l9 52h-40zM331 616l14 78h78l-23 -130c-4 -23.333 -16.667 -41.333 -38 -54h-38c22.667 13.333 36 31.333 40 54l9 52h-42z" />
    <glyph glyph-name="quotedblbase" unicode="&#x201e;" horiz-adv-x="358" 
d="M60 0l14 78h78l-23 -130c-2 -11.333 -6.16699 -21.333 -12.5 -30s-14.833 -16.667 -25.5 -24h-38c21.333 14 34 32 38 54l9 52h-40zM220 0l14 78h78l-23 -130c-4 -23.333 -16.667 -41.333 -38 -54h-38c22.667 13.333 36 31.333 40 54l9 52h-42z" />
    <glyph glyph-name="daggerdbl" unicode="&#x2021;" horiz-adv-x="792" 
d="M781 538c1.33301 9.33301 2 15.6699 2 19.0029c0 47.333 -31.333 71 -94 71h-308c-36 0 -65.833 -9.5 -89.5 -28.5s-38.167 -44.833 -43.5 -77.5l1 -8c-0.666992 -4.66699 -1.16699 -9.66699 -1.5 -15s-0.5 -9.33301 -0.5 -12c0 -20 7.16699 -43.667 21.5 -71
s21.5 -55.333 21.5 -84h434l-13 -72h-426c-11.333 -38 -26.5 -70.833 -45.5 -98.5s-42.167 -52.834 -69.5 -75.501c-4.66699 -4 -11 -8.66699 -19 -14h604l-13 -72h-698l13 72l37 26c28 21.333 50.167 42.166 66.5 62.499s28.833 38.666 37.5 54.999s14 30.5 16 42.5l-113 2
l13 72l73 -2l29 2c0 20.667 -10.333 50.667 -31 90c-10 19.333 -15 40.666 -15 63.999v27c2 9.33301 3.33301 16.333 4 21c8 44.667 32.167 82.5 72.5 113.5s89.166 46.5 146.499 46.5h308c48.667 0 85.834 -10 111.501 -30s38.5 -51.667 38.5 -95v-15
c-1.33301 -7.33301 -2 -12.666 -2 -15.999h-68z" />
    <glyph glyph-name="bullet" unicode="&#x2022;" horiz-adv-x="478" 
d="M320 442c44 0 78.334 -12.999 103.001 -38.999c22 -23.333 33 -53.333 33 -90c0 -10.667 -1 -21 -3 -31c-8 -44 -28.333 -81 -61 -111c-36.667 -34 -80 -51 -130 -51c-47.333 0 -83.333 12.333 -108 37s-37 55.667 -37 93c0 8.66699 1 18 3 28
c7.33301 43.333 28.666 80.666 63.999 111.999c38.667 34.667 84 52 136 52z" />
    <glyph glyph-name="ellipsis" unicode="&#x2026;" horiz-adv-x="466" 
d="M60 0l14 78h78l-14 -78h-78zM334 0l14 78h78l-14 -78h-78zM197 0l14 78h78l-14 -78h-78z" />
    <glyph glyph-name="perthousand" unicode="&#x2030;" horiz-adv-x="1640" 
d="M549 536c2.66699 13.333 4 26.667 4 40c0 21.333 -5.83301 36 -17.5 44s-32.834 12 -63.501 12h-149c-40 0 -67.667 -6.33301 -83 -19s-26.666 -38.334 -33.999 -77.001l-20 -116c-2 -12 -3 -22.667 -3 -32c0 -21.333 6.66699 -36.666 20 -45.999s35 -14 65 -14h149
c36 0 62 6.33301 78 19s27.333 37 34 73zM591 414.001c-10 -54 -28.333 -92 -55 -114s-68 -33 -124 -33h-162c-46 0 -79.5 7.5 -100.5 22.5s-31.5 39.833 -31.5 74.5v14c0 4 1.66699 16 5 36l22 127c10.667 57.333 29 97 55 119s68.333 33 127 33h162
c44 0 76.5 -7.66699 97.5 -23s31.5 -41.333 31.5 -78c0 -12.667 -1.66699 -29.667 -5 -51zM842 728.001l-342 -761h-59l342 761h59zM1137 148.001c-10 -55.333 -28.167 -93.832 -54.5 -115.499s-67.5 -32.5 -123.5 -32.5h-162c-46.667 0 -80.5 7.5 -101.5 22.5
s-31.5 40.167 -31.5 75.5v14c0 4 1.66699 16 5 36l22 126c10.667 57.333 29.167 97.166 55.5 119.499s68.833 33.5 127.5 33.5h162c44 0 76.333 -7.66699 97 -23s31 -42 31 -80c0 -8.66699 -0.666992 -17.667 -2 -27s-2.33301 -17 -3 -23zM1097 269.002
c2.66699 13.333 3.99805 26.668 3.99805 40.001c0 21.333 -6.16699 36.166 -18.5 44.499s-33.5 12.5 -63.5 12.5h-149c-39.333 0 -66.666 -6.33301 -81.999 -19s-26.666 -38.667 -33.999 -78l-20 -116c-1.33301 -6 -2.33301 -11.5 -3 -16.5s-1 -10.5 -1 -16.5
c0 -21.333 6.5 -36.5 19.5 -45.5s34.833 -13.5 65.5 -13.5h149c36 0 62.167 6.5 78.5 19.5s27.833 37.167 34.5 72.5zM1639 148.004c-10 -55.333 -28.168 -93.8311 -54.501 -115.498s-67.5 -32.5 -123.5 -32.5h-162c-47.333 0 -81.166 7.66699 -101.499 23
s-30.5 41.666 -30.5 78.999c0 6.66699 0.5 14.667 1.5 24s1.83301 16.666 2.5 21.999l22 126c12.667 58 31.667 98 57 120s67.333 33 126 33h162c44 0 76.333 -7.66699 97 -23s31 -42 31 -80c0 -8.66699 -0.666992 -17.667 -2 -27s-2.33301 -17 -3 -23zM1599 269.006
c2.66699 13.333 3.99805 26.668 3.99805 40.001c0 21.333 -6.16699 36.166 -18.5 44.499s-33.166 12.5 -62.499 12.5h-149c-40 0 -67.667 -6.33301 -83 -19s-26.666 -38.667 -33.999 -78l-20 -116c-1.33301 -6 -2.33301 -11.5 -3 -16.5s-1 -10.5 -1 -16.5
c0 -39.333 28.667 -59 86 -59h149c36 0 62 6.33301 78 19s27.333 37 34 73z" />
    <glyph glyph-name="guilsinglleft" unicode="&#x2039;" horiz-adv-x="341" 
d="M168 278l140 -168l-40 -34l-166 202l243 206l26 -34z" />
    <glyph glyph-name="guilsinglright" unicode="&#x203a;" horiz-adv-x="339" 
d="M273 278l-143 174l40 32l169 -206l-238 -200l-26 32z" />
    <glyph glyph-name="trademark" unicode="&#x2122;" horiz-adv-x="400" 
d="M188 769h124l-2 -13h-55l-29 -162h-13l29 162h-56zM276 596l71 175l28 -148l84 148l5 -175h-14l-2 131l-79 -140l-28 140l-52 -131h-13z" />
    <glyph glyph-name=".null" horiz-adv-x="0" 
 />
    <glyph glyph-name="nonmarkingreturn" horiz-adv-x="318" 
 />
  </font>
</defs>
</svg>
